<svg width="81" height="80" viewBox="0 0 81 80" fill="none" xmlns="http://www.w3.org/2000/svg">
<path d="M73.7832 48.2781C72.4165 51.56 71.1065 54.7284 69.6405 58.2515C70.539 59.0838 71.7024 60.11 72.809 61.1882C73.7926 62.1339 73.7548 62.7913 72.809 63.756C69.7887 66.7857 66.7605 69.8122 63.7244 72.8356C62.807 73.753 62.1354 73.753 61.218 72.8593C60.2296 71.9135 59.2696 70.9062 58.2576 69.9698C58.142 69.8762 58.006 69.8111 57.8606 69.7799C57.7151 69.7486 57.5644 69.7522 57.4206 69.7901C54.5571 71.432 51.4833 72.6761 48.284 73.4882C48.284 75.0677 48.284 76.6424 48.284 78.2172C48.284 79.5176 47.811 80 46.5342 80H33.5198C32.1862 80 31.7369 79.5271 31.7322 78.1652V73.7578L21.9382 69.6625C21.0444 70.5562 19.9567 71.6534 18.8596 72.7458C17.8523 73.753 17.2328 73.7672 16.235 72.7741C13.1831 69.7318 10.136 66.6832 7.09363 63.6283C6.26604 62.8007 6.28022 62.1008 7.09363 61.2638C8.07255 60.2565 9.07985 59.2682 10.0399 58.242C10.1311 58.1381 10.1962 58.0141 10.23 57.88C10.2637 57.746 10.265 57.6058 10.2337 57.4712C8.57186 54.5958 7.31769 51.5034 6.50723 48.2828H1.75922C0.46818 48.2828 0 47.8099 0 46.5094C0 42.1682 0 37.8302 0 33.4953C0 32.1996 0.472918 31.7361 1.76869 31.7314H6.2424L10.3378 21.9377C9.39197 20.9919 8.29008 19.9042 7.17875 18.7835C6.26603 17.8661 6.2613 17.1993 7.17875 16.2818C10.2211 13.2332 13.2682 10.1862 16.3201 7.14075C17.1997 6.26589 17.8996 6.2517 18.765 7.14075C19.8716 8.26151 20.9451 9.42011 21.8436 10.3612L31.7322 6.24224C31.7322 4.89448 31.7322 3.31974 31.7322 1.74026C31.7322 0.491813 32.2051 0.00472897 33.4346 0C37.8043 0 42.1724 0 46.5389 0C47.8158 0 48.2792 0.472897 48.284 1.79228C48.284 3.33865 48.284 4.88976 48.284 6.4645C49.4284 6.83336 50.5728 7.11237 51.6463 7.56162C53.4907 8.33718 55.3208 9.17893 57.1037 10.0916C57.7138 10.399 58.0495 10.3517 58.4751 9.88355C59.3878 8.93775 60.3668 8.02033 61.3126 7.10291C62.1638 6.2848 62.8495 6.28007 63.6771 7.10291C66.751 10.1673 69.8186 13.2364 72.8799 16.3102C73.7501 17.1803 73.7501 17.885 72.8799 18.7551C71.7591 19.8617 70.61 20.9399 69.6736 21.8337C71.0923 25.2574 72.4118 28.4211 73.7737 31.7077H78.29C79.529 31.7077 80.0114 32.1806 80.0114 33.4338C80.0114 37.8002 80.0114 42.1667 80.0114 46.5331C80.0114 47.7721 79.5385 48.2497 78.29 48.2591L73.7832 48.2781ZM70.1181 62.4413C69.1723 61.4955 68.1839 60.4788 67.1861 59.4857C66.1883 58.4926 66.1126 58.067 66.8693 56.8706C68.6874 53.9722 70.0256 50.7992 70.8322 47.4741C71.2626 45.7197 71.4376 45.5826 73.1968 45.5826H77.1976V34.5404H72.8752C71.5889 34.5404 71.2437 34.285 70.9836 33.0413C70.1824 29.5367 68.7928 26.1932 66.874 23.153C66.1977 22.0796 66.2545 21.654 67.1672 20.746C68.1981 19.7198 69.2338 18.7031 70.1465 17.8046L62.3057 9.94975L59.3926 12.8817C58.4184 13.8559 58.0117 13.9032 56.8389 13.1655C53.8471 11.2774 50.556 9.91181 47.1064 9.12691C45.8012 8.83372 45.5316 8.47904 45.5316 7.09346V2.83738H34.494C34.494 4.36484 34.494 5.83082 34.494 7.29207C34.494 8.38919 34.196 8.78643 33.113 9.03706C29.5227 9.85957 26.0988 11.2877 22.9881 13.26C22.0423 13.8559 21.5694 13.7802 20.7843 12.9905C19.7297 11.9407 18.6846 10.8814 17.6915 9.88828L9.87433 17.6911C10.8769 18.6984 11.9362 19.7435 12.9813 20.8027C13.7616 21.5925 13.8373 22.0796 13.2414 23.0112C11.2756 26.0844 9.85196 29.4722 9.03255 33.0271C8.763 34.2046 8.38467 34.4789 7.17403 34.4837C5.71747 34.4837 4.2609 34.4837 2.80434 34.4837V45.5211H7.08417C8.40832 45.5211 8.77245 45.7812 9.06093 47.0533C9.86109 50.5285 11.2442 53.8431 13.1516 56.8564C13.8326 57.9346 13.7758 58.3791 12.8868 59.2682C11.8558 60.2991 10.8202 61.3206 9.87906 62.2522L17.6821 70.0928C18.6704 69.095 19.6966 68.0546 20.7323 67.019C21.5599 66.1961 22.0328 66.1252 23.0117 66.7447C26.0952 68.7022 29.4932 70.1132 33.0563 70.9156C34.1629 71.1615 34.475 71.5872 34.475 72.7268C34.475 74.2117 34.475 75.6919 34.475 77.2004H45.4843C45.4843 75.6966 45.4843 74.2401 45.4843 72.7836C45.4843 71.6108 45.7492 71.2798 46.9031 71.0055C50.2953 70.2306 53.5381 68.9064 56.5031 67.0852C58.0732 66.111 58.2481 66.1394 59.5865 67.4777L62.3199 70.1921L70.1181 62.4413Z" fill="#D5A31A"/>
<path d="M39.8614 64.8295C36.5935 64.8091 33.3617 64.1441 30.3512 62.8727C27.3407 61.6012 24.6107 59.7483 22.3175 57.42C20.0243 55.0918 18.2131 52.3339 16.9876 49.3045C15.762 46.2751 15.1463 43.0337 15.1756 39.7659C15.2323 26.137 26.4828 15.0902 40.2397 15.1753C46.8237 15.2402 53.1125 17.9167 57.7238 22.6166C62.3351 27.3164 64.8914 33.6549 64.8309 40.2388C64.7931 53.7873 53.519 64.8862 39.8614 64.8295ZM40.0506 55.9106C40.1924 55.3479 40.2728 54.9932 40.3721 54.6385C42.8738 45.3934 48.946 39.8605 58.1393 37.5812C59.331 37.288 60.5369 37.0562 61.8422 36.7725C60.518 29.419 56.7679 23.8293 50.1755 20.4717C42.2827 16.4521 34.4844 17.0432 27.2016 22.089C22.1131 25.6169 19.2 30.6012 18.2164 36.8103C29.5473 38.5364 37.18 44.3436 40.0506 55.9106ZM19.6729 39.974L32.7583 54.2319L30.7012 56.0856L18.1833 42.4425C18.8879 52.7659 28.2798 61.7084 38.6082 61.9826C38.0596 59.7458 37.4732 57.5327 36.9814 55.2911C36.1682 51.622 34.2681 48.2832 31.5287 45.7102C28.3022 42.5649 24.1417 40.552 19.6729 39.974ZM61.8847 42.4094L49.3101 56.1234L47.2719 54.2319L53.7602 47.181L60.3147 40.0355C54.0534 41.0144 49.2865 43.9936 45.7444 48.9685C42.9589 52.8746 42.6941 57.5894 41.3747 62.0063C51.6888 61.6091 60.9295 53.0874 61.8847 42.4094Z" fill="#D5A31A"/>
<path d="M53.8074 31.8119C53.8074 33.5332 53.8074 35.2593 53.8074 36.9806C53.8377 37.3261 53.753 37.6719 53.5666 37.9643C53.3802 38.2568 53.1024 38.4795 52.7765 38.5979C48.7662 40.376 44.7607 42.1778 40.7362 43.918C40.2641 44.0976 39.7424 44.0976 39.2702 43.918C35.2411 42.1778 31.2308 40.376 27.2253 38.6026C26.9011 38.482 26.6253 38.2587 26.44 37.9666C26.2547 37.6746 26.1701 37.33 26.199 36.9853C26.199 33.4828 26.199 29.9786 26.199 26.4728C26.1701 26.1282 26.2547 25.7836 26.44 25.4915C26.6253 25.1995 26.9011 24.9761 27.2253 24.8555C31.2592 23.0774 35.2505 21.2993 39.2986 19.5402C39.7704 19.3584 40.2929 19.3584 40.7646 19.5402C44.7938 21.2852 48.8041 23.0869 52.8049 24.8603C53.1303 24.9809 53.4072 25.2048 53.5934 25.4977C53.7795 25.7907 53.8647 26.1364 53.8358 26.4823C53.7932 28.2509 53.8074 30.0338 53.8074 31.8119ZM29.0081 36.3611L38.6318 40.6172C38.6318 37.9737 38.6318 35.5052 38.6034 33.0508C38.6034 32.8049 38.2204 32.4644 37.9414 32.3368C35.2552 31.112 32.5455 29.925 29.8452 28.7286C29.5945 28.6151 29.3297 28.5252 29.0081 28.3975V36.3611ZM41.3936 40.6172C41.8003 40.4469 42.0651 40.3476 42.3394 40.2341C44.7512 39.1654 47.1394 38.0257 49.5891 37.0563C50.7477 36.5834 51.1875 36.0254 51.1024 34.7485C50.97 32.6725 51.0693 30.5823 51.0693 28.5252C50.9511 28.4874 50.918 28.4637 50.8991 28.4732C47.8535 29.8068 44.8033 31.1356 41.7719 32.4928C41.6732 32.5563 41.5906 32.642 41.5307 32.7429C41.4708 32.8439 41.4352 32.9574 41.4267 33.0745C41.3841 35.5336 41.3936 38.0021 41.3936 40.6077V40.6172ZM48.9601 26.2506C48.7095 26.104 48.6196 26.0425 48.5203 25.9999C45.8531 24.8082 43.1906 23.6024 40.4809 22.4485C40.1169 22.3264 39.7205 22.345 39.3696 22.5005C36.8206 23.5976 34.2858 24.742 31.7463 25.8723C31.5524 25.9574 31.3727 26.0756 31.0511 26.2506C34.0399 27.5794 36.882 28.8468 39.7337 30.1C39.9146 30.1709 40.1156 30.1709 40.2964 30.1C43.1575 28.8279 45.9808 27.57 48.9649 26.2411L48.9601 26.2506Z" fill="#D5A31A"/>
</svg>
