<svg width="23" height="22" viewBox="0 0 23 22" fill="none" xmlns="http://www.w3.org/2000/svg">
<path fill-rule="evenodd" clip-rule="evenodd" d="M7.41341 1.05842C8.45608 1.01042 8.78853 0.999756 11.4445 0.999756C14.1005 0.999756 14.433 1.01131 15.4747 1.05842C16.5165 1.10553 17.2276 1.27176 17.8499 1.51264C18.5014 1.75887 19.0925 2.14376 19.5814 2.64153C20.0792 3.12953 20.4632 3.71976 20.7085 4.3722C20.9503 4.99442 21.1156 5.70553 21.1636 6.74553C21.2116 7.78998 21.2223 8.12242 21.2223 10.7775C21.2223 13.4335 21.2107 13.766 21.1636 14.8086C21.1165 15.8486 20.9503 16.5598 20.7085 17.182C20.4632 17.8345 20.0786 18.4257 19.5814 18.9144C19.0925 19.4122 18.5014 19.7962 17.8499 20.0415C17.2276 20.2833 16.5165 20.4486 15.4765 20.4966C14.433 20.5446 14.1005 20.5553 11.4445 20.5553C8.78853 20.5553 8.45608 20.5438 7.41341 20.4966C6.37341 20.4495 5.6623 20.2833 5.04008 20.0415C4.38757 19.7962 3.79637 19.4115 3.30764 18.9144C2.8102 18.4261 2.42525 17.8352 2.17964 17.1829C1.93875 16.5606 1.77341 15.8495 1.72541 14.8095C1.67741 13.7651 1.66675 13.4326 1.66675 10.7775C1.66675 8.12153 1.6783 7.78909 1.72541 6.74731C1.77253 5.70553 1.93875 4.99442 2.17964 4.3722C2.42561 3.71983 2.81085 3.12892 3.30853 2.64064C3.79656 2.14331 4.38717 1.75837 5.03919 1.51264C5.66141 1.27176 6.37253 1.10642 7.41253 1.05842H7.41341ZM15.3956 2.81842C14.3645 2.77131 14.0552 2.76153 11.4445 2.76153C8.83386 2.76153 8.52453 2.77131 7.49341 2.81842C6.53964 2.86198 6.0223 3.02109 5.67741 3.15531C5.22141 3.33309 4.89519 3.54376 4.55297 3.88598C4.22857 4.20158 3.97891 4.58578 3.8223 5.01042C3.68808 5.35531 3.52897 5.87264 3.48541 6.82642C3.4383 7.85753 3.42853 8.16687 3.42853 10.7775C3.42853 13.3882 3.4383 13.6975 3.48541 14.7286C3.52897 15.6824 3.68808 16.1998 3.8223 16.5446C3.97875 16.9686 4.22853 17.3535 4.55297 17.6691C4.86853 17.9935 5.25341 18.2433 5.67741 18.3998C6.0223 18.534 6.53964 18.6931 7.49341 18.7366C8.52453 18.7838 8.83297 18.7935 11.4445 18.7935C14.0561 18.7935 14.3645 18.7838 15.3956 18.7366C16.3494 18.6931 16.8667 18.534 17.2116 18.3998C17.6676 18.222 17.9939 18.0113 18.3361 17.6691C18.6605 17.3535 18.9103 16.9686 19.0667 16.5446C19.201 16.1998 19.3601 15.6824 19.4036 14.7286C19.4507 13.6975 19.4605 13.3882 19.4605 10.7775C19.4605 8.16687 19.4507 7.85753 19.4036 6.82642C19.3601 5.87264 19.201 5.35531 19.0667 5.01042C18.889 4.55442 18.6783 4.2282 18.3361 3.88598C18.0205 3.5616 17.6363 3.31194 17.2116 3.15531C16.8667 3.02109 16.3494 2.86198 15.3956 2.81842ZM10.1956 13.7918C10.8931 14.0821 11.6698 14.1213 12.3929 13.9026C13.1161 13.684 13.7409 13.221 14.1606 12.5929C14.5804 11.9647 14.769 11.2103 14.6943 10.4585C14.6197 9.70672 14.2863 9.00418 13.7512 8.47087C13.4101 8.12996 12.9976 7.86892 12.5435 7.70655C12.0894 7.54418 11.6049 7.48452 11.125 7.53186C10.645 7.5792 10.1816 7.73236 9.76791 7.98032C9.35426 8.22827 9.00074 8.56486 8.73279 8.96585C8.46485 9.36683 8.28914 9.82224 8.21832 10.2993C8.1475 10.7763 8.18333 11.2631 8.32323 11.7247C8.46313 12.1862 8.70362 12.611 9.02739 12.9684C9.35116 13.3258 9.75015 13.607 10.1956 13.7918ZM7.89075 7.22376C8.35744 6.75707 8.91148 6.38687 9.52123 6.1343C10.131 5.88173 10.7845 5.75173 11.4445 5.75173C12.1045 5.75173 12.7581 5.88173 13.3678 6.1343C13.9776 6.38687 14.5316 6.75707 14.9983 7.22376C15.465 7.69044 15.8352 8.24448 16.0878 8.85424C16.3403 9.464 16.4703 10.1175 16.4703 10.7775C16.4703 11.4375 16.3403 12.0911 16.0878 12.7008C15.8352 13.3106 15.465 13.8646 14.9983 14.3313C14.0558 15.2738 12.7775 15.8033 11.4445 15.8033C10.1116 15.8033 8.83327 15.2738 7.89075 14.3313C6.94823 13.3888 6.41873 12.1105 6.41873 10.7775C6.41873 9.44461 6.94823 8.16628 7.89075 7.22376ZM17.585 6.5002C17.7006 6.39111 17.7932 6.25992 17.8572 6.1144C17.9213 5.96888 17.9555 5.812 17.9578 5.65303C17.9601 5.49406 17.9305 5.33624 17.8707 5.18892C17.811 5.0416 17.7222 4.90777 17.6098 4.79535C17.4974 4.68293 17.3636 4.59421 17.2163 4.53444C17.0689 4.47467 16.9111 4.44507 16.7521 4.44739C16.5932 4.4497 16.4363 4.48389 16.2908 4.54793C16.1453 4.61197 16.0141 4.70455 15.905 4.8202C15.6928 5.04512 15.5766 5.34386 15.5812 5.65303C15.5857 5.96219 15.7105 6.25743 15.9291 6.47606C16.1477 6.6947 16.443 6.81951 16.7521 6.82402C17.0613 6.82853 17.3601 6.71237 17.585 6.5002Z" fill="#A9A9A9"/>
</svg>
