<svg width="22" height="22" viewBox="0 0 22 22" fill="none" xmlns="http://www.w3.org/2000/svg">
<path d="M21.6827 4.49922C20.9405 4.82811 20.1432 5.05033 19.305 5.15077C20.1699 4.63325 20.8169 3.81874 21.1254 2.85922C20.3128 3.34187 19.4235 3.68161 18.4961 3.86366C17.8724 3.19776 17.0464 2.7564 16.1461 2.60808C15.2459 2.45977 14.3219 2.61281 13.5176 3.04344C12.7133 3.47407 12.0737 4.15821 11.698 4.98962C11.3223 5.82104 11.2317 6.75322 11.4401 7.64144C9.79358 7.55877 8.18286 7.13082 6.71246 6.38535C5.24205 5.63989 3.94483 4.59358 2.90497 3.31433C2.54941 3.92766 2.34497 4.63877 2.34497 5.39611C2.34457 6.07788 2.51246 6.74921 2.83375 7.35053C3.15503 7.95186 3.61978 8.46458 4.18674 8.84322C3.52921 8.8223 2.88619 8.64462 2.31119 8.325V8.37833C2.31112 9.33454 2.64189 10.2613 3.24735 11.0014C3.85282 11.7415 4.6957 12.2494 5.63297 12.4388C5.023 12.6039 4.38349 12.6282 3.76274 12.5099C4.02719 13.3327 4.5423 14.0521 5.23596 14.5676C5.92962 15.0831 6.76712 15.3687 7.63119 15.3846C6.16437 16.536 4.35287 17.1606 2.48808 17.1579C2.15775 17.158 1.8277 17.1387 1.49963 17.1001C3.3925 18.3172 5.59594 18.9631 7.8463 18.9606C15.4641 18.9606 19.6285 12.6512 19.6285 7.17922C19.6285 7.00144 19.6241 6.82188 19.6161 6.64411C20.4261 6.05831 21.1253 5.3329 21.681 4.50188L21.6827 4.49922Z" fill="#A9A9A9"/>
</svg>
