<svg width="12" height="11" viewBox="0 0 12 11" fill="none" xmlns="http://www.w3.org/2000/svg">
<path d="M5.77769 0.666504C3.20061 0.666504 1.11102 2.75609 1.11102 5.33317C1.11102 7.91025 3.20061 9.99984 5.77769 9.99984C8.35477 9.99984 10.4444 7.91025 10.4444 5.33317C10.4444 2.75609 8.35477 0.666504 5.77769 0.666504ZM5.77769 9.20817C3.63811 9.20817 1.90269 7.47275 1.90269 5.33317C1.90269 3.19359 3.63811 1.45817 5.77769 1.45817C7.91727 1.45817 9.65269 3.19359 9.65269 5.33317C9.65269 7.47275 7.91727 9.20817 5.77769 9.20817Z" fill="#F2F2F2"/>
<path d="M5.77765 1.45801C3.63807 1.45801 1.90265 3.19342 1.90265 5.33301C1.90265 7.47259 3.63807 9.20801 5.77765 9.20801C7.91723 9.20801 9.65265 7.47259 9.65265 5.33301C9.65265 3.19342 7.91723 1.45801 5.77765 1.45801ZM5.83494 7.01009C6.38598 7.01009 6.75994 6.67988 6.80369 6.19967C6.80786 6.15697 6.84327 6.12363 6.88702 6.12363H7.47869C7.50577 6.12363 7.52765 6.14551 7.52765 6.17259C7.52765 7.03301 6.81202 7.64551 5.83286 7.64551C4.68807 7.64551 4.02765 6.88301 4.02765 5.6153V5.07051C4.02765 3.79342 4.68807 3.02051 5.83286 3.02051C6.81515 3.02051 7.52765 3.6528 7.52765 4.55592C7.52765 4.58301 7.50577 4.60488 7.47869 4.60488H6.88807C6.84432 4.60488 6.80786 4.57155 6.80473 4.5278C6.76307 4.01113 6.38807 3.65905 5.83598 3.65905C5.15682 3.65905 4.77244 4.16426 4.7714 5.07051V5.61842C4.7714 6.51113 5.15473 7.01009 5.83494 7.01009Z" fill="black" fill-opacity="0.15"/>
<path d="M5.83598 3.65905C6.38807 3.65905 6.76307 4.01113 6.80473 4.5278C6.80786 4.57155 6.84432 4.60488 6.88807 4.60488H7.47869C7.50577 4.60488 7.52765 4.58301 7.52765 4.55592C7.52765 3.6528 6.81515 3.02051 5.83286 3.02051C4.68807 3.02051 4.02765 3.79342 4.02765 5.07051V5.6153C4.02765 6.88301 4.68807 7.64551 5.83286 7.64551C6.81202 7.64551 7.52765 7.03301 7.52765 6.17259C7.52765 6.14551 7.50577 6.12363 7.47869 6.12363H6.88702C6.84327 6.12363 6.80786 6.15697 6.80369 6.19967C6.75994 6.67988 6.38598 7.01009 5.83494 7.01009C5.15473 7.01009 4.7714 6.51113 4.7714 5.61842V5.07051C4.77244 4.16426 5.15682 3.65905 5.83598 3.65905Z" fill="#F2F2F2"/>
</svg>
