<svg width="23" height="22" viewBox="0 0 23 22" fill="none" xmlns="http://www.w3.org/2000/svg">
<path d="M17.664 17.8886C10.0809 17.8993 4.32538 12.0753 4.33338 4.55794C4.33338 4.06638 4.7316 3.66638 5.22227 3.66638H7.56894C8.00894 3.66638 8.38316 3.98994 8.44805 4.42549C8.60281 5.46999 8.90664 6.48687 9.35027 7.44505L9.44183 7.64238C9.50333 7.77517 9.51656 7.92526 9.47923 8.06677C9.44191 8.20827 9.35638 8.33231 9.23738 8.41749C8.51027 8.9366 8.23294 9.98105 8.79916 10.7953C9.51204 11.8205 10.4018 12.7105 11.4267 13.4237C12.2418 13.989 13.2863 13.7117 13.8045 12.9855C13.8896 12.8661 14.0137 12.7803 14.1554 12.7428C14.2971 12.7053 14.4475 12.7185 14.5805 12.7802L14.7769 12.8708C15.7352 13.3153 16.752 13.6193 17.7965 13.7739C18.232 13.8388 18.5556 14.213 18.5556 14.6539V16.9997C18.5556 17.1165 18.5326 17.2322 18.4879 17.3401C18.4431 17.448 18.3776 17.546 18.2949 17.6286C18.2123 17.7111 18.1142 17.7766 18.0063 17.8212C17.8983 17.8658 17.7826 17.8887 17.6658 17.8886H17.664Z" fill="#A9A9A9"/>
</svg>
