<svg width="89" height="80" viewBox="0 0 89 80" fill="none" xmlns="http://www.w3.org/2000/svg">
<path d="M88.9383 32.7187C88.5381 33.3332 88.0999 33.9001 87.2709 33.9287C86.2229 33.9715 85.4701 33.1665 85.4701 31.9469C85.4701 27.4594 85.4701 22.9734 85.4701 18.489V17.4934H77.9812V18.4461C77.9812 23.7436 77.9812 29.0409 77.9812 34.3383C78.0284 34.8139 77.9172 35.2918 77.6648 35.6975C77.4123 36.1033 77.0328 36.4143 76.5854 36.5821C75.6326 37.0061 74.7084 37.4825 73.7889 37.9732C73.4862 38.1769 73.1296 38.2858 72.7646 38.2858C72.3997 38.2858 72.0431 38.1769 71.7404 37.9732C70.1064 36.7679 68.5247 36.725 66.8812 37.9494C66.5709 38.1693 66.2011 38.2898 65.8208 38.2949C65.4406 38.3 65.0677 38.1895 64.7517 37.9779C63.7989 37.4587 62.7984 36.9775 61.8075 36.5012C61.4193 36.3378 61.0928 36.0558 60.8746 35.6955C60.6564 35.3353 60.5577 34.9153 60.5927 34.4956C60.5927 29.1696 60.5927 23.8484 60.5927 18.5224V17.4981H53.2086V62.5165H85.4606V48.4251C85.4606 47.0816 85.8417 46.41 86.7516 46.1527C87.5663 45.9241 88.2332 46.2766 88.9335 47.3056V64.8461C88.419 65.7988 87.6425 66.0799 86.5516 66.0799C75.0386 66.0513 63.5257 66.0513 52.0128 66.0799C50.2168 66.0799 49.6642 65.532 49.6642 63.7647V16.2786C49.6642 14.5112 50.2168 13.9634 52.0128 13.9634C63.5226 13.9634 75.0355 13.9634 86.5516 13.9634C87.6187 13.9634 88.4 14.254 88.9335 15.1972L88.9383 32.7187ZM74.5226 17.4743H64.1038V18.4795C64.1038 23.11 64.1466 27.7357 64.0752 32.3614C64.0752 33.4285 64.3372 34.0716 65.3567 34.3098C65.6938 34.3983 66.0493 34.3883 66.381 34.2812C67.0484 34.0052 67.6976 33.6869 68.3246 33.3284C68.6245 33.153 68.9657 33.0606 69.3132 33.0606C69.6606 33.0606 70.0018 33.153 70.3017 33.3284C70.9639 33.6809 71.6451 34.0049 72.3216 34.3288C73.1839 34.7385 74.5226 33.9096 74.5226 32.9664C74.5226 31.5372 74.5226 30.0747 74.5226 28.6313V17.4743Z" fill="#D5A31A"/>
<path d="M88.9384 40.5362C88.8431 40.6696 88.7478 40.8125 88.6478 40.9459C88.4463 41.2576 88.1493 41.4958 87.8013 41.6248C87.4532 41.7538 87.0728 41.7667 86.7168 41.6616C86.3608 41.5566 86.0483 41.3392 85.8261 41.0419C85.6039 40.7446 85.4838 40.3834 85.4838 40.0122C85.4838 39.6411 85.6039 39.2798 85.8261 38.9826C86.0483 38.6853 86.3608 38.4679 86.7168 38.3628C87.0728 38.2577 87.4532 38.2707 87.8013 38.3997C88.1493 38.5287 88.4463 38.7668 88.6478 39.0785L88.9384 39.493V40.5362Z" fill="#D5A31A"/>
<path d="M8.19382 31.3226C6.9933 31.3226 6.0167 31.3512 5.04485 31.3226C3.71467 31.273 2.45389 30.7163 1.5211 29.7667C0.58832 28.8171 0.0542227 27.5465 0.0283802 26.2157C0.0112583 25.9833 0.0410593 25.7497 0.115989 25.529C0.190919 25.3083 0.309458 25.1049 0.464563 24.9309C0.619668 24.7569 0.808161 24.6159 1.01886 24.5162C1.22955 24.4166 1.45814 24.3602 1.69103 24.3507C1.92392 24.3411 2.15637 24.3784 2.37454 24.4605C2.59271 24.5425 2.79217 24.6676 2.96105 24.8282C3.12993 24.9889 3.26479 25.1818 3.3576 25.3957C3.45041 25.6095 3.49926 25.8397 3.5013 26.0728C3.65375 27.3257 4.24925 27.8545 5.50694 27.8593C7.47446 27.8593 9.44198 27.8593 11.4095 27.8593C11.4899 27.8323 11.568 27.7989 11.6429 27.7592L9.49438 24.0196C8.76073 22.7429 8.00326 21.4709 7.29343 20.2085C6.5836 18.9461 7.14097 17.7932 8.5654 17.455C8.98892 17.3158 9.36842 17.0677 9.66587 16.7357C10.1423 16.2593 10.5329 15.64 11.0379 15.1731C11.4345 14.7804 11.9068 14.4724 12.4262 14.268C12.9456 14.0635 13.5011 13.9668 14.059 13.9837C14.6169 14.0006 15.1655 14.1308 15.6715 14.3664C16.1775 14.602 16.6303 14.9381 17.0024 15.3542C17.5026 15.8734 17.9266 16.4641 18.3887 17.0215C18.8508 17.5789 19.3415 17.6075 19.8179 17.0215C20.1847 16.5785 20.5277 16.1068 20.9088 15.6733C22.8668 13.4105 25.7014 13.3915 27.6737 15.6305C28.0167 16.0211 28.2882 16.4784 28.6598 16.8357C28.9297 17.1205 29.2698 17.3291 29.6459 17.4407C31.0751 17.7647 31.6611 18.8699 30.9418 20.1752C29.6507 22.4666 28.3216 24.7389 27.0067 27.016C26.1492 28.5024 26.3683 29.2837 27.888 30.0983C33.0808 32.8804 36.387 37.1154 37.7447 42.8559C38.3798 45.5142 38.334 48.2899 37.6113 50.9258C37.0085 53.0839 37.0901 55.3759 37.8447 57.4856C38.7261 60.001 37.9448 62.2018 36.1583 63.9978C34.3718 65.7938 32.128 66.6037 29.5793 65.7081C27.499 64.9526 25.2334 64.8726 23.105 65.4794C20.4731 66.225 17.6858 66.225 15.0539 65.4794C12.9539 64.8774 10.717 64.9575 8.66545 65.7081C6.12149 66.6132 3.90147 65.8462 2.07211 64.0359C0.242748 62.2257 -0.529004 59.9438 0.385678 57.3665C1.081 55.3616 1.17211 53.1965 0.64769 51.1402C-1.20073 43.156 1.43376 36.7819 7.69361 31.7275L8.19382 31.3226ZM34.8053 46.9956C34.4337 40.8026 31.7945 36.3199 26.678 33.3425C25.8157 32.8661 25.063 32.1563 24.2341 31.5894C24.0075 31.4349 23.7412 31.3489 23.4671 31.3416C20.5706 31.3226 17.6757 31.3226 14.7824 31.3416C14.5089 31.3526 14.2443 31.4419 14.0201 31.5989C13.2079 32.2385 12.3636 32.8364 11.4905 33.3901C5.65462 36.5866 2.24364 43.7181 3.97296 50.0064C4.78642 52.7159 4.70791 55.615 3.74904 58.2764C3.52243 58.8304 3.47362 59.4411 3.60932 60.024C3.74503 60.6069 4.05855 61.1332 4.50652 61.5301C4.90679 61.9984 5.44466 62.3283 6.04347 62.4729C6.64228 62.6175 7.27147 62.5693 7.84129 62.3352C10.3224 61.4212 13.0296 61.3178 15.5732 62.0399C17.8936 62.6973 20.3511 62.6973 22.6715 62.0399C25.2263 61.3169 27.9452 61.4287 30.432 62.3591C30.9983 62.5451 31.6051 62.5704 32.1849 62.4321C32.7646 62.2937 33.2946 61.9972 33.7159 61.5754C34.1371 61.1537 34.433 60.6234 34.5707 60.0434C34.7084 59.4635 34.6824 58.8568 34.4957 58.2907C33.6014 55.7943 33.4835 53.0856 34.1574 50.5209C34.4766 49.2442 34.6291 47.9532 34.8053 46.9956ZM11.319 20.118C12.5386 22.7191 14.4632 24.9581 15.2969 27.7926H22.9192C23.8101 24.9342 25.7252 22.6809 26.921 20.1132C26.2826 19.351 25.6919 18.6079 25.063 17.8933C24.4342 17.1787 24.1388 17.2549 23.5672 17.8933C23.1622 18.3697 22.8144 18.8461 22.4142 19.3224C20.5087 21.4757 17.6503 21.4566 15.7685 19.2843C15.3683 18.8079 15.0063 18.3316 14.6156 17.8552C14.1392 17.2835 13.6628 17.293 13.1865 17.8552L11.319 20.118Z" fill="#D5A31A"/>
<path d="M63.7656 4.98349C63.6942 4.62144 63.6275 4.37372 63.6037 4.12123C63.5545 3.71528 63.6524 3.30514 63.8796 2.96516C64.1068 2.62519 64.4484 2.37792 64.8423 2.26812C65.2299 2.12919 65.6565 2.14644 66.0316 2.31624C66.4068 2.48604 66.7012 2.79507 66.8527 3.178C67.4006 4.94063 67.8865 6.72706 68.2819 8.5278C68.4772 9.42816 67.9198 10.0713 66.9337 10.3571C65.4346 10.7859 63.9276 11.1892 62.4127 11.5671C62.1933 11.643 61.9609 11.6738 61.7293 11.6574C61.4978 11.6411 61.2719 11.5781 61.0654 11.4721C60.8588 11.3662 60.6759 11.2196 60.5275 11.041C60.3792 10.8625 60.2685 10.6558 60.2022 10.4333C59.9164 9.5282 60.4023 8.64689 61.4122 8.25625C61.5409 8.20385 61.679 8.16575 62.0077 8.06095C61.6218 7.83705 61.3789 7.67507 61.1169 7.55121C48.3637 1.48683 36.0203 2.20142 24.0961 9.795C22.7003 10.6858 21.7141 10.6906 21.0757 9.69495C20.4374 8.6993 20.7899 7.78941 22.1381 6.93192C35.2613 -1.4334 48.8338 -2.22738 62.8557 4.54999L63.7656 4.98349Z" fill="#D5A31A"/>
<path d="M25.2251 75.1123C25.2728 75.379 25.3299 75.6267 25.3585 75.8745C25.4126 76.2949 25.3112 76.7205 25.0734 77.0714C24.8357 77.4223 24.478 77.6743 24.0675 77.78C23.6737 77.9026 23.2479 77.8685 22.8787 77.6847C22.5095 77.501 22.2254 77.1819 22.0857 76.7939C21.5569 75.0837 21.0853 73.3544 20.6946 71.6108C20.485 70.6581 21.009 69.9673 22.0142 69.6767C23.5451 69.2416 25.079 68.8319 26.6162 68.4476C26.8304 68.3784 27.0563 68.3525 27.2806 68.3715C27.5049 68.3905 27.7232 68.4539 27.9227 68.5581C28.1223 68.6623 28.2991 68.8052 28.4428 68.9784C28.5866 69.1517 28.6944 69.3518 28.76 69.5671C28.8991 69.9993 28.8627 70.4689 28.6585 70.8744C28.4544 71.2799 28.099 71.5889 27.6691 71.7347C27.4293 71.8117 27.2206 71.9637 27.0736 72.1682C28.7838 72.9018 30.4512 73.7546 32.2043 74.3453C43.7998 78.2326 54.7474 76.8701 64.9995 70.1578C65.1472 70.0626 65.2853 69.9578 65.4378 69.872C65.6243 69.7219 65.8401 69.6124 66.0714 69.5503C66.3027 69.4882 66.5443 69.4749 66.781 69.5114C67.0176 69.5478 67.2441 69.6331 67.446 69.7618C67.6479 69.8906 67.8207 70.06 67.9536 70.2592C68.0864 70.4584 68.1762 70.6831 68.2175 70.919C68.2587 71.1549 68.2503 71.3968 68.1929 71.6292C68.1355 71.8617 68.0303 72.0796 67.8841 72.2692C67.7378 72.4588 67.5536 72.6158 67.3433 72.7303C65.6916 73.8457 63.9751 74.8622 62.203 75.7744C50.1184 81.5133 38.0688 81.4069 26.0541 75.4552C25.8445 75.3504 25.6444 75.2361 25.4348 75.1361C25.3657 75.1221 25.2956 75.1142 25.2251 75.1123Z" fill="#D5A31A"/>
<path d="M74.7512 52.1694C73.0171 52.1694 71.283 52.1694 69.5537 52.1694C68.3675 52.1694 67.591 51.4691 67.5862 50.4448C67.5814 49.4206 68.358 48.7061 69.5347 48.7061C73.0283 48.7061 76.5218 48.7061 80.0154 48.7061C81.2016 48.7061 81.9782 49.4063 81.9829 50.4258C81.9877 51.4453 81.2111 52.1599 80.0344 52.1694C78.2718 52.1789 76.5091 52.1694 74.7512 52.1694Z" fill="#D5A31A"/>
<path d="M70.9972 59.11C70.4208 59.11 69.8443 59.1386 69.2679 59.11C68.8163 59.0988 68.3872 58.9109 68.0727 58.5866C67.7583 58.2624 67.5836 57.8277 67.5862 57.376C67.5856 57.1521 67.6291 56.9302 67.7142 56.723C67.7993 56.5158 67.9245 56.3275 68.0824 56.1687C68.2403 56.0099 68.428 55.8837 68.6346 55.7974C68.8413 55.7112 69.063 55.6664 69.287 55.6658C70.4684 55.6277 71.6499 55.6277 72.8313 55.6658C73.2837 55.6733 73.7148 55.8593 74.0306 56.1832C74.3465 56.5071 74.5216 56.9427 74.5178 57.3951C74.5141 57.8476 74.3337 58.2807 74.015 58.602C73.6964 58.9233 73.2648 59.1074 72.8123 59.1148C72.212 59.1386 71.6022 59.11 70.9972 59.11Z" fill="#D5A31A"/>
<path d="M20.8612 55.3707C20.8612 56.0234 20.8612 56.6856 20.8612 57.3477C20.8612 57.5748 20.8165 57.7997 20.7296 58.0095C20.6427 58.2193 20.5153 58.4099 20.3547 58.5705C20.1941 58.7311 20.0035 58.8584 19.7937 58.9454C19.5839 59.0323 19.359 59.077 19.1319 59.077C18.9048 59.077 18.6799 59.0323 18.4701 58.9454C18.2603 58.8584 18.0697 58.7311 17.9091 58.5705C17.7485 58.4099 17.6211 58.2193 17.5342 58.0095C17.4473 57.7997 17.4026 57.5748 17.4026 57.3477C17.3788 56.6856 17.4026 56.0186 17.4026 55.5613C16.6319 55.0179 15.8952 54.4276 15.1969 53.7939C15.0157 53.6352 14.8706 53.4396 14.7711 53.2202C14.6717 53.0009 14.6202 52.7628 14.6202 52.5219C14.6202 52.2811 14.6717 52.043 14.7711 51.8237C14.8706 51.6043 15.0157 51.4087 15.1969 51.25C15.9401 50.5592 16.9071 50.6259 17.7361 51.431C18.565 52.2361 19.2367 52.3504 19.9894 51.936C20.316 51.7506 20.5749 51.4658 20.7283 51.123C20.8816 50.7803 20.9216 50.3975 20.8422 50.0304C20.6278 49.2063 19.999 48.7633 18.9366 48.6966C17.7713 48.6468 16.6564 48.2077 15.7703 47.4494C14.8841 46.6911 14.278 45.6575 14.0488 44.5139C13.8137 43.4013 13.9564 42.242 14.4542 41.2196C14.9521 40.1971 15.7767 39.3699 16.7976 38.8687C17.0087 38.7945 17.1869 38.6483 17.301 38.4558C17.4151 38.2633 17.4578 38.0368 17.4217 37.8159C17.3812 37.3547 17.3812 36.8909 17.4217 36.4296C17.4507 35.9919 17.6449 35.5816 17.9651 35.2817C18.2853 34.9819 18.7075 34.8149 19.1462 34.8147C20.0418 34.8147 20.9327 35.515 20.8326 36.4296C20.6754 37.9207 21.0947 38.9211 22.5 39.55C22.893 39.797 23.2097 40.1483 23.4147 40.5647C23.62 40.9024 23.6983 41.3023 23.6354 41.6926C23.5725 42.0828 23.3727 42.4379 23.0717 42.6941C22.7701 42.9703 22.3788 43.1281 21.97 43.1386C21.5612 43.1491 21.1624 43.0116 20.8469 42.7513C20.6421 42.5893 20.4849 42.3702 20.2848 42.2082C20.022 41.9539 19.6813 41.7955 19.3175 41.7583C18.9537 41.7212 18.588 41.8075 18.2792 42.0034C17.9657 42.1648 17.7139 42.4247 17.5624 42.7431C17.4109 43.0616 17.3682 43.4209 17.4407 43.766C17.4953 44.1408 17.6753 44.4861 17.9513 44.7456C18.2272 45.0051 18.5829 45.1636 18.9604 45.1951C19.2748 45.2428 19.5988 45.219 19.9132 45.2714C21.0098 45.4331 22.0261 45.941 22.8139 46.7208C23.6017 47.5007 24.1197 48.5118 24.2926 49.6067C24.4654 50.7016 24.284 51.8231 23.7747 52.8077C23.2654 53.7923 22.455 54.5884 21.4615 55.0801L20.8612 55.3707Z" fill="#D5A31A"/>
</svg>
