<svg width="17" height="22" viewBox="0 0 17 22" fill="none" xmlns="http://www.w3.org/2000/svg">
<path d="M9.43184 21.2443C11.5693 18.5693 16.4443 12.086 16.4443 8.44434C16.4443 4.02767 12.861 0.444336 8.44434 0.444336C4.02767 0.444336 0.444336 4.02767 0.444336 8.44434C0.444336 12.086 5.31934 18.5693 7.45684 21.2443C7.96934 21.8818 8.91934 21.8818 9.43184 21.2443ZM8.44434 11.111C6.9735 11.111 5.77767 9.91517 5.77767 8.44434C5.77767 6.9735 6.9735 5.77767 8.44434 5.77767C9.91517 5.77767 11.111 6.9735 11.111 8.44434C11.111 9.91517 9.91517 11.111 8.44434 11.111Z" fill="#A9A9A9"/>
</svg>
