<svg width="23" height="22" viewBox="0 0 23 22" fill="none" xmlns="http://www.w3.org/2000/svg">
<path d="M15.4303 10.9787L20.8978 6.22847V15.6747L15.4303 10.9787ZM8.38494 11.7831L10.3049 13.4498C10.6063 13.7058 10.9992 13.8605 11.4285 13.8605H11.4436H11.4427H11.4552C11.8854 13.8605 12.2783 13.7049 12.5832 13.4471L12.5805 13.4489L14.5005 11.7822L20.3369 16.7947H2.55117L8.38494 11.7831ZM2.54317 5.10225H20.3476L11.7956 12.5298C11.6995 12.6059 11.5804 12.6472 11.4578 12.6471H11.4454H11.4463H11.4338C11.3108 12.6473 11.1914 12.6056 11.0952 12.5289L11.0961 12.5298L2.54317 5.10225ZM1.99117 6.22758L7.45783 10.9778L1.99117 15.6711V6.22758ZM21.1912 4.0578C20.9778 3.95114 20.7272 3.88892 20.4614 3.88892H2.43028C2.17264 3.88898 1.91855 3.94893 1.68805 4.06403L1.69783 4.05958C1.4219 4.19568 1.18952 4.40623 1.02695 4.66745C0.864375 4.92866 0.778087 5.23013 0.777832 5.5378V16.3574C0.778303 16.7952 0.952456 17.215 1.26208 17.5247C1.57171 17.8343 1.99151 18.0084 2.42939 18.0089H20.4587C20.8966 18.0084 21.3164 17.8343 21.626 17.5247C21.9357 17.215 22.1098 16.7952 22.1103 16.3574V5.5378C22.1103 4.89158 21.7378 4.33158 21.1956 4.06225L21.1858 4.0578H21.1912Z" fill="#A9A9A9"/>
</svg>
