<svg width="42" height="47" viewBox="0 0 42 47" fill="none" xmlns="http://www.w3.org/2000/svg">
<path d="M20.4169 0C21.3713 0.35004 21.7113 1.05516 21.676 2.0398C21.6382 3.29893 21.676 4.57318 21.676 5.81721C23.187 6.36115 23.4389 6.77415 23.3482 8.54197C23.3054 9.44855 22.7992 9.98494 21.6735 10.262C21.6735 10.5918 21.6735 10.9368 21.6735 11.2844C21.6735 12.4705 21.0137 13.1605 19.8427 13.1655C16.8207 13.1806 13.7987 13.1806 10.7767 13.1655C9.62833 13.1655 8.96853 12.4654 8.96097 11.3196V10.6775C8.96097 9.67016 9.43442 9.09599 10.4191 8.86179C10.4795 8.84668 10.5349 8.8215 10.6105 8.79632V7.31306C10.5173 7.29039 10.4191 7.26521 10.3209 7.24506C9.9418 7.17133 9.59987 6.96886 9.35296 6.67194C9.10606 6.37502 8.96935 6.00189 8.96601 5.61574C8.9509 4.27099 8.96601 2.92371 8.96601 1.58651C8.96601 0.778145 9.49486 0.327375 10.1521 0.00755451L20.4169 0ZM12.0056 8.84669C12.4388 8.84669 12.8216 8.82906 13.1993 8.84669C13.3071 8.84299 13.4143 8.86499 13.5119 8.91088C13.6095 8.95677 13.6948 9.02523 13.7608 9.11061C13.8267 9.19598 13.8714 9.29582 13.8911 9.40187C13.9109 9.50793 13.9051 9.61715 13.8742 9.72053C13.8309 9.87881 13.7325 10.0165 13.5968 10.1088C13.4611 10.2011 13.297 10.242 13.1338 10.2242C12.3783 10.2242 11.6354 10.2418 10.8875 10.2242C10.4468 10.2242 10.2629 10.3879 10.3108 10.8235C10.3158 10.915 10.3158 11.0066 10.3108 11.098C10.3108 11.788 10.3335 11.8132 11.0361 11.8132H19.3466C20.2935 11.8132 20.2935 11.8132 20.2935 10.8512C20.2935 10.2317 20.2935 10.2317 19.679 10.2317C18.6263 10.2317 17.5711 10.2317 16.516 10.2317C16.4276 10.2344 16.3396 10.2195 16.2571 10.1877C16.1746 10.156 16.0992 10.1081 16.0355 10.0469C15.9717 9.98572 15.9207 9.91241 15.8856 9.83129C15.8505 9.75016 15.8319 9.66286 15.831 9.57446C15.8275 9.39617 15.8937 9.22354 16.0155 9.09328C16.1373 8.96302 16.3051 8.88539 16.4832 8.8769C16.6199 8.86807 16.757 8.86807 16.8937 8.8769C18.4047 8.8769 19.9157 8.8769 21.4267 8.8769C21.8196 8.8769 21.9959 8.72833 21.9631 8.33296C21.9631 8.22719 21.9631 8.11891 21.9631 8.01314C21.9631 7.32313 21.9354 7.29795 21.2328 7.29795H12.0056V8.84669ZM10.3687 4.33394C10.3479 4.37277 10.3327 4.4143 10.3234 4.45734C10.3234 4.70917 10.3234 4.97862 10.3234 5.238C10.3234 5.86757 10.3461 5.89275 10.963 5.89275H19.8125C19.9585 5.89275 20.1046 5.87764 20.2456 5.86757V4.33394H10.3687ZM20.2859 2.92119C20.2859 2.58123 20.2658 2.26141 20.2859 1.94662C20.3186 1.51096 20.165 1.3649 19.7117 1.36742C17.0222 1.38757 14.3351 1.36742 11.6531 1.36742C10.1824 1.36742 10.1824 1.36742 10.3309 2.85572C10.3309 2.85572 10.3511 2.87586 10.3838 2.91112L20.2859 2.92119Z" fill="#238310"/>
<path d="M4.70244 18.3355C1.25485 27.4013 5.73244 37.1243 13.5166 40.8463V32.5008C13.222 32.5008 12.9198 32.5008 12.6201 32.5008C12.1542 32.5008 11.8646 32.2263 11.8646 31.8158C11.8646 31.4053 12.1491 31.151 12.6201 31.1258H30.8377C31.5428 31.1258 31.8752 31.3424 31.8878 31.8032C31.9004 32.2641 31.5579 32.5033 30.8226 32.5033H24.4965V35.8778H28.8129C28.8129 35.6814 28.8129 35.5026 28.8129 35.3213C28.8129 34.7496 29.0799 34.4273 29.513 34.4348C29.9462 34.4424 30.1804 34.7597 30.188 35.3439C30.188 35.4824 30.188 35.6184 30.188 35.7569V45.6235C30.5103 45.6235 30.7949 45.6235 31.0794 45.6235C31.5831 45.6235 31.8853 45.9055 31.8803 46.316C31.8752 46.7265 31.5655 46.996 31.0694 46.996C28.7189 46.996 26.3634 46.996 24.0029 46.996H12.8543C12.6723 47.0087 12.4894 46.9917 12.3128 46.9456C12.1623 46.9041 12.033 46.8075 11.9504 46.675C11.8678 46.5425 11.8381 46.3838 11.8671 46.2304C11.8761 46.0672 11.9476 45.9137 12.0666 45.8016C12.1857 45.6896 12.3433 45.6276 12.5068 45.6285C12.8241 45.6059 13.1464 45.6285 13.5367 45.6285C13.5014 44.9867 13.5064 44.3433 13.5519 43.7021C13.6753 42.7728 13.3126 42.3296 12.4816 41.8763C6.8128 38.7688 3.41557 33.9866 2.36039 27.6103C1.83791 24.4074 2.1644 21.1235 3.30729 18.0862C3.34506 17.9855 3.37276 17.8848 3.43068 17.711C3.19396 17.7865 3.00005 17.8445 2.80865 17.915C2.19418 18.1416 1.58223 18.3834 0.962719 18.5974C0.877226 18.6353 0.784873 18.6554 0.691352 18.6562C0.597831 18.6571 0.505124 18.6388 0.418941 18.6025C0.332758 18.5662 0.254926 18.5126 0.190243 18.445C0.125559 18.3775 0.0753955 18.2974 0.04284 18.2097C0.0102844 18.122 -0.00397248 18.0286 0.000949098 17.9352C0.00587067 17.8418 0.0298663 17.7504 0.0714563 17.6667C0.113046 17.5829 0.171349 17.5085 0.242774 17.4482C0.314199 17.3878 0.397232 17.3427 0.486755 17.3156C1.79797 16.812 3.11421 16.3217 4.4355 15.845C4.90894 15.6771 5.23633 15.8324 5.41765 16.3108C5.91124 17.6103 6.3956 18.9122 6.87072 20.2167C6.91247 20.3027 6.9358 20.3965 6.93923 20.4921C6.94265 20.5877 6.92609 20.683 6.89061 20.7718C6.85513 20.8606 6.8015 20.941 6.73315 21.008C6.66481 21.0749 6.58325 21.1268 6.4937 21.1604C6.40415 21.194 6.30857 21.2086 6.21308 21.2031C6.11758 21.1977 6.02427 21.1724 5.93912 21.1288C5.85396 21.0853 5.77882 21.0244 5.71852 20.9502C5.65821 20.8759 5.61407 20.7899 5.58889 20.6977C5.29425 19.9472 5.01975 19.1867 4.70244 18.3355ZM28.7827 37.3233H14.9319V41.0201H28.7827V37.3233ZM19.1954 35.8879V32.526H14.942V35.8879H19.1954ZM19.208 42.4757H14.9495V45.5983H19.208V42.4757ZM28.8104 45.6109C28.8104 44.6036 28.8104 43.6517 28.7953 42.6948C28.7953 42.6066 28.5939 42.4429 28.478 42.4429C28.0222 42.4152 27.5613 42.4429 27.1055 42.4429H24.4965V45.6185L28.8104 45.6109ZM20.6284 35.8778H23.0485V32.5235H20.6284V35.8778ZM20.6284 45.5983H23.0535V42.4757H20.6284V45.5983Z" fill="#238310"/>
<path d="M36.1816 11.7527C42.2256 19.6651 42.6336 27.7664 37.4131 36.1976C37.7984 36.0515 38.2189 35.8928 38.642 35.7392C39.1809 35.5428 39.5511 35.6637 39.7098 36.0842C39.8684 36.5048 39.6745 36.8196 39.1532 37.0185C37.8974 37.492 36.6382 37.9604 35.3757 38.4237C34.8318 38.6227 34.5094 38.4665 34.3004 37.9201C33.8269 36.6609 33.3594 35.4018 32.8977 34.1427C32.7138 33.639 32.8599 33.2738 33.2754 33.1353C33.691 32.9968 33.9957 33.1807 34.182 33.6667C34.5346 34.5934 34.8771 35.5227 35.2599 36.5426C37.5906 33.8814 39.0634 30.5785 39.4856 27.0663C40.1278 21.7125 38.6546 16.9781 35.1591 12.823C33.4139 14.1174 31.5151 14.5858 29.4274 14.0217C27.9143 13.631 26.6035 12.6852 25.7557 11.3724C25.1051 10.3893 24.738 9.24584 24.6948 8.06769C24.6516 6.88955 24.934 5.72229 25.5109 4.69414C26.0878 3.66599 26.9369 2.81673 27.965 2.23965C28.9931 1.66257 30.1603 1.37999 31.3385 1.42296C32.5167 1.46594 33.6602 1.83279 34.6435 2.48323C35.6268 3.13367 36.4118 4.04253 36.9123 5.10998C37.4127 6.17742 37.6093 7.36215 37.4804 8.53402C37.3515 9.70589 36.9021 10.8196 36.1816 11.7527ZM36.1337 7.81917C36.1337 6.82389 35.8388 5.85093 35.2863 5.02312C34.7337 4.19531 33.9483 3.54976 33.0291 3.16797C32.11 2.78618 31.0983 2.68527 30.1219 2.87798C29.1454 3.07069 28.2479 3.54837 27.5427 4.25073C26.8375 4.95309 26.3563 5.84863 26.1597 6.82429C25.963 7.79996 26.0599 8.812 26.438 9.73265C26.8162 10.6533 27.4586 11.4413 28.2842 11.9971C29.1098 12.553 30.0816 12.8517 31.0769 12.8557C31.7415 12.8597 32.4003 12.7321 33.0154 12.4803C33.6305 12.2285 34.1896 11.8575 34.6606 11.3886C35.1316 10.9197 35.5052 10.3623 35.7597 9.74834C36.0143 9.13443 36.1448 8.47621 36.1438 7.81161L36.1337 7.81917Z" fill="#238310"/>
<path d="M27.2037 34.2987C27.1974 34.4834 27.1206 34.6586 26.9891 34.7884C26.8575 34.9182 26.6813 34.9927 26.4965 34.9966C26.3118 35.0004 26.1326 34.9334 25.9957 34.8092C25.8589 34.6851 25.7748 34.5132 25.7607 34.329C25.7671 34.1443 25.8439 33.9691 25.9754 33.8393C26.107 33.7095 26.2832 33.635 26.4679 33.6311C26.6527 33.6273 26.8319 33.6943 26.9688 33.8185C27.1056 33.9426 27.1897 34.1145 27.2037 34.2987Z" fill="#238310"/>
<path d="M21.8397 38.3405C22.7715 38.3405 23.7033 38.3405 24.6351 38.3405C25.1891 38.3405 25.4762 38.5924 25.4712 39.0305C25.4661 39.4687 25.174 39.7105 24.62 39.713C22.7732 39.713 20.9264 39.713 19.0797 39.713C18.5256 39.713 18.2285 39.4612 18.2209 39.0356C18.2133 38.61 18.513 38.3431 19.0973 38.3405C20.0039 38.338 20.9206 38.3405 21.8397 38.3405Z" fill="#238310"/>
<path d="M17.9413 34.2888C17.9451 34.4293 17.9073 34.5677 17.8328 34.6869C17.7583 34.8061 17.6504 34.9006 17.5224 34.9588C17.3945 35.017 17.2523 35.0362 17.1135 35.014C16.9747 34.9918 16.8456 34.9293 16.7421 34.8341C16.6387 34.739 16.5656 34.6155 16.532 34.479C16.4983 34.3426 16.5056 34.1992 16.553 34.0669C16.6003 33.9346 16.6856 33.8191 16.7981 33.735C16.9107 33.6508 17.0455 33.6017 17.1858 33.5937C17.2816 33.5876 17.3776 33.6009 17.468 33.6329C17.5585 33.6649 17.6415 33.7149 17.7121 33.7798C17.7827 33.8448 17.8394 33.9234 17.8788 34.0108C17.9182 34.0983 17.9395 34.1929 17.9413 34.2888Z" fill="#238310"/>
<path d="M17.9439 44.0495C17.9452 44.1446 17.9276 44.239 17.8922 44.3272C17.8567 44.4155 17.804 44.4958 17.7373 44.5635C17.6705 44.6312 17.5909 44.685 17.5032 44.7217C17.4154 44.7584 17.3213 44.7773 17.2262 44.7772C17.0351 44.7772 16.8519 44.7014 16.7169 44.5663C16.5818 44.4312 16.5059 44.248 16.5059 44.057C16.5059 43.866 16.5818 43.6828 16.7169 43.5477C16.8519 43.4127 17.0351 43.3368 17.2262 43.3368C17.4156 43.3368 17.5974 43.4117 17.7319 43.5452C17.8664 43.6787 17.9426 43.86 17.9439 44.0495Z" fill="#238310"/>
<path d="M27.2088 44.0797C27.199 44.2716 27.1145 44.4521 26.9733 44.5825C26.8321 44.7128 26.6454 44.7827 26.4533 44.7772C26.2623 44.7712 26.0815 44.6896 25.9507 44.5503C25.8198 44.4109 25.7497 44.2254 25.7557 44.0343C25.7617 43.8433 25.8434 43.6625 25.9827 43.5317C26.122 43.4009 26.3076 43.3308 26.4986 43.3368C26.691 43.3421 26.8735 43.4231 27.0065 43.5622C27.1395 43.7013 27.2122 43.8873 27.2088 44.0797Z" fill="#238310"/>
<path d="M31.1978 3.78235C31.4673 4.01655 31.7594 4.15002 31.8299 4.35903C31.8655 4.47135 31.9268 4.5738 32.009 4.65819C32.0912 4.74257 32.192 4.80657 32.3034 4.84506C32.4701 4.92138 32.6206 5.02911 32.7466 5.16236C32.8703 5.28078 32.9465 5.4403 32.9609 5.61096C32.9753 5.78161 32.9268 5.95164 32.8247 6.08909C32.6081 6.3938 32.3034 6.34091 31.9987 6.22759C31.7717 6.10902 31.5266 6.02902 31.2734 5.99087C31.1097 5.99087 30.941 6.18226 30.7697 6.28803C30.8679 6.43409 30.9334 6.63555 31.0719 6.71865C31.3537 6.86993 31.6477 6.99713 31.9508 7.09891C32.7063 7.38851 33.1924 7.88965 33.2603 8.7106C33.3283 9.53156 32.9481 10.2065 32.2354 10.6774C32.0843 10.7781 32.0138 10.9947 31.8778 11.1281C31.6864 11.3195 31.4799 11.6091 31.2608 11.6318C31.1268 11.6174 30.9978 11.5725 30.8839 11.5004C30.7699 11.4284 30.674 11.3312 30.6035 11.2163C30.5622 11.1159 30.4988 11.026 30.4182 10.9532C30.3376 10.8804 30.2417 10.8266 30.1376 10.7957C29.9349 10.7279 29.7438 10.6294 29.571 10.5036C29.4889 10.4606 29.4167 10.4011 29.359 10.3287C29.3012 10.2563 29.2591 10.1727 29.2355 10.0831C29.2118 9.99358 29.207 9.90009 29.2214 9.8086C29.2358 9.71711 29.2691 9.62963 29.3192 9.55171C29.5131 9.23944 29.8656 9.16893 30.2484 9.31247C30.5546 9.43644 30.8754 9.52106 31.2029 9.5643C31.2838 9.57333 31.3658 9.56597 31.4438 9.54267C31.5218 9.51936 31.5944 9.48059 31.6571 9.42866C31.7199 9.37673 31.7715 9.3127 31.809 9.24039C31.8465 9.16808 31.869 9.08896 31.8753 9.00776C31.9483 8.64009 31.6965 8.50411 31.4094 8.38071C31.0085 8.23262 30.6174 8.05936 30.2384 7.86195C29.9818 7.71605 29.7669 7.50686 29.6142 7.25434C29.4615 7.00181 29.376 6.71438 29.3659 6.41943C29.3558 6.12449 29.4214 5.83187 29.5565 5.56949C29.6916 5.30711 29.8917 5.08372 30.1376 4.92061C30.299 4.76259 30.4441 4.5888 30.5708 4.40184C30.7521 4.19786 30.9435 4.02914 31.1978 3.78235Z" fill="#238310"/>
</svg>
