<svg width="82" height="80" viewBox="0 0 82 80" fill="none" xmlns="http://www.w3.org/2000/svg">
<path d="M81.1248 40.4282C80.7728 42.0578 80.0688 43.495 78.6902 44.538C77.5886 45.3355 76.2662 45.7706 74.9063 45.7829C74.9063 46.689 74.9063 47.5526 74.9063 48.4163C74.914 48.7576 74.8922 49.0989 74.8411 49.4364C74.7986 49.7202 74.6513 49.9777 74.4283 50.1583C74.2052 50.3388 73.9226 50.4291 73.6362 50.4116C73.3498 50.394 73.0803 50.2697 72.8811 50.0632C72.6818 49.8567 72.5671 49.5831 72.5597 49.2963C72.5206 48.4 72.5401 47.5038 72.5368 46.6042V45.8481H69.6394C70.9268 47.5624 70.8616 49.469 70.8258 51.3886C70.7867 53.2333 70.8258 55.0877 70.6824 56.9291C70.6052 57.8166 70.3478 58.679 69.9258 59.4635C69.5038 60.2481 68.9262 60.9383 68.2282 61.4919C67.5047 62.085 67.2309 62.6977 67.345 63.5679C67.3581 63.711 67.3581 63.855 67.345 63.9981L72.5336 65.1356V55.4462C72.5238 55.1556 72.5368 54.8646 72.5727 54.576C72.6705 53.9698 73.1072 53.5657 73.658 53.6472C74.1116 53.7763 74.5073 54.057 74.7792 54.4424C74.9552 54.6673 74.8998 55.0942 74.8998 55.4397C74.8998 59.2431 74.8998 63.0465 74.9193 66.8466C74.9133 67.2605 75.0168 67.6686 75.2192 68.0296C76.0784 69.3968 76.5369 70.9776 76.5424 72.5924C76.5424 74.0166 76.5424 75.4441 76.5424 76.8684C76.5228 78.7423 75.3691 79.9287 73.482 79.9841C72.1783 80.0199 70.8942 79.9841 69.6003 79.9841C64.0597 79.9841 58.5191 79.9841 52.9784 79.9678C52.3266 79.9678 51.6585 79.6973 50.9936 79.5734C50.7781 79.5344 50.5573 79.5344 50.3418 79.5734C49.6508 79.6973 48.9664 79.9743 48.2787 79.9775C41.5995 80.0058 34.9204 80.0058 28.2412 79.9775C27.5893 79.9775 26.9375 79.7005 26.2563 79.5767C26.0408 79.5376 25.82 79.5376 25.6045 79.5767C24.9527 79.7005 24.2845 79.9743 23.6229 79.9775C16.9155 80.0069 10.2081 79.9971 3.50065 79.9939C1.141 79.9939 0.00680123 78.8597 0.0230972 76.4903C0.0230972 74.776 -0.0811989 73.0389 0.153463 71.3507C0.727081 67.2214 4.11012 64.324 8.26885 64.2034C8.55566 64.2034 8.84247 64.2034 9.21727 64.2034C9.21727 63.5907 9.25313 63.0399 9.19772 62.5022C9.15017 62.2555 9.01322 62.035 8.81314 61.883C7.90884 61.2084 7.16779 60.3391 6.64482 59.3394C6.12185 58.3398 5.83034 57.2353 5.79187 56.1078C5.69735 53.8264 5.66802 51.5092 5.79187 49.2213C5.85705 48.0806 6.34267 46.966 6.65229 45.7895C6.17971 45.7895 5.58328 45.7895 4.98358 45.7895C2.02424 45.7373 0.0198366 43.7395 0.0165774 40.7769C0.00354065 28.866 0.00354065 16.955 0.0165774 5.04402C0.0165774 2.0326 2.0275 0.038023 5.03573 0.00869097C5.74624 0.00869097 6.46 -0.0108637 7.17376 0.00869097C7.97226 0.0347639 8.47744 0.523641 8.44485 1.22109C8.41226 1.91854 7.94945 2.33897 7.1868 2.36504C6.42415 2.39112 5.75927 2.36504 5.04877 2.36504C3.35073 2.36504 2.39253 3.3232 2.38927 5.01468C2.38927 9.29064 2.38927 13.5688 2.38927 17.8491V40.5064C2.38927 42.514 3.27903 43.4005 5.28995 43.4005H49.0935C51.049 43.4005 51.9583 42.488 51.9616 40.5455C51.9616 38.0099 51.9616 35.4744 51.9616 32.9388C51.9392 32.65 51.9747 32.3598 52.0659 32.0849C52.1552 31.8308 52.3356 31.6188 52.5722 31.4899C52.8088 31.3611 53.0848 31.3246 53.3467 31.3874C54.0246 31.5211 54.3082 32.023 54.3245 32.6552C54.3506 34.0273 54.3245 35.4027 54.3245 36.7747C54.3245 38.0784 54.3245 39.3625 54.3245 40.6564C54.2984 43.759 52.3038 45.7536 49.2076 45.7732C47.8354 45.7732 46.4633 45.7732 45.1075 45.7732C45.0716 45.8481 45.0195 45.9133 45.0325 45.9361C45.9549 47.3473 46.1537 48.9182 46.1048 50.5608C46.0429 52.6434 46.1048 54.7325 45.9614 56.8085C45.9159 57.6782 45.6857 58.5282 45.2861 59.302C44.8866 60.0758 44.3268 60.7556 43.6441 61.2963C42.624 62.098 42.4871 62.9878 42.6664 64.1937C45.9744 64.1122 48.6959 65.3213 50.609 68.248C51.4732 66.92 52.6669 65.8387 54.0735 65.1095C55.49 64.4443 57.0472 64.1345 58.6103 64.2067C58.6103 63.1964 58.8743 62.3099 57.8086 61.4821C55.9802 60.0611 55.2012 57.9883 55.2012 55.6906C55.2012 53.393 55.1393 51.0366 55.2925 48.7227C55.4391 46.5619 56.6809 45.0301 58.5875 44.01C58.7347 43.9338 58.8635 43.8264 58.9648 43.6952C59.0662 43.564 59.1376 43.4123 59.1742 43.2506C59.21 38.2348 59.2002 33.2158 59.1937 28.2C59.1799 28.0596 59.157 27.9203 59.1253 27.7829H58.2094C52.6688 27.7829 47.1282 27.7144 41.5876 27.8089C38.7488 27.8578 36.6988 25.8535 36.9139 23.08C36.9139 22.8453 36.9139 22.6074 36.9139 22.3695C36.94 21.4536 36.953 20.6715 36.0144 19.987C34.9682 19.2212 34.8117 17.9534 35.1441 16.666C35.1821 16.3796 35.1124 16.0892 34.9486 15.8512C34.6984 15.5448 34.433 15.2511 34.1534 14.9713C33.5602 14.225 32.9344 13.9936 31.8719 13.9707C30.6465 13.9707 30.1413 14.515 29.5579 15.2744C29.3723 15.5321 29.1709 15.7781 28.9549 16.0109C28.264 16.7051 27.9283 17.37 28.2412 18.4748C28.7431 20.2445 27.3677 21.9947 25.4904 22.3043C23.7272 22.5976 21.8858 21.2842 21.7424 19.4982C21.6772 18.6867 21.3741 18.2565 20.6668 17.9925C20.3963 17.8874 20.1392 17.7506 19.9009 17.5851C19.148 17.0701 18.4799 16.8844 17.5445 17.3928C16.9579 17.7187 16.0779 17.4743 15.3283 17.5167C15.0387 17.4996 14.7506 17.5688 14.5004 17.7155C13.6009 18.4911 12.7242 19.2994 11.8931 20.1533C11.7934 20.2885 11.7226 20.4427 11.685 20.6064C11.6474 20.7701 11.6439 20.9398 11.6747 21.1049C11.8301 21.9431 11.6665 22.809 11.216 23.5326C10.7655 24.2563 10.0607 24.7853 9.24009 25.0159C8.41306 25.2474 7.52847 25.1492 6.77234 24.742C6.0162 24.3348 5.44744 23.6502 5.18566 22.8323C4.9828 22.2689 4.94341 21.6597 5.07201 21.075C5.20061 20.4902 5.49197 19.9538 5.91246 19.5275C6.30788 19.0587 6.83429 18.7185 7.42423 18.5507C8.01418 18.3829 8.6408 18.3951 9.22379 18.5856C9.42592 18.6666 9.64869 18.6805 9.85932 18.6253C10.0699 18.5702 10.2573 18.4489 10.3938 18.2793C11.1435 17.5329 11.9191 16.8159 12.7046 16.112C12.8728 15.9949 12.9991 15.8269 13.0648 15.6327C13.1305 15.4385 13.1322 15.2284 13.0696 15.0332C12.9688 14.5806 12.9635 14.112 13.0542 13.6573C13.1448 13.2025 13.3295 12.7718 13.5962 12.3925C13.8629 12.0132 14.2059 11.6938 14.6032 11.4547C15.0005 11.2156 15.4433 11.0621 15.9034 11.004C16.3634 10.9459 16.8305 10.9845 17.2748 11.1173C17.719 11.2501 18.1307 11.4742 18.4833 11.7753C18.836 12.0763 19.1219 12.4477 19.3228 12.8656C19.5237 13.2835 19.6351 13.7387 19.65 14.2021C19.6347 14.3949 19.6836 14.5874 19.7892 14.7495C19.8947 14.9116 20.0509 15.0343 20.2333 15.0984C20.6196 15.2697 20.9922 15.4702 21.348 15.6981C22.1465 16.213 22.8798 16.5519 23.838 15.8969C24.2519 15.6133 24.9592 15.7795 25.523 15.6818C25.8594 15.651 26.1787 15.5192 26.4388 15.3037C27.1461 14.5248 27.7719 13.6742 28.4628 12.8692C28.5912 12.7453 28.6771 12.584 28.7081 12.4084C28.7392 12.2327 28.7138 12.0517 28.6355 11.8914C28.363 11.2268 28.3205 10.4902 28.5148 9.79864C28.709 9.10711 29.129 8.50039 29.7078 8.075C30.2542 7.65183 30.919 7.40965 31.6095 7.38219C32.3 7.35474 32.9819 7.54338 33.5602 7.92183C34.1574 8.31921 34.6147 8.89421 34.8673 9.56559C35.12 10.237 35.1552 10.9708 34.9682 11.6633C34.9419 11.9972 35.0206 12.331 35.193 12.6182C35.3169 12.8692 35.5907 13.0386 35.7732 13.27C36.425 14.0685 37.0769 14.5313 38.3186 14.4303C38.7162 14.4228 39.1062 14.3193 39.4552 14.1286C39.8042 13.938 40.1019 13.6658 40.323 13.3352C41.2845 12.1098 42.2948 10.9202 43.2335 9.68174C43.3272 9.54338 43.391 9.38697 43.4207 9.22253C43.4505 9.05808 43.4455 8.88924 43.4062 8.72682C43.1559 8.0391 43.1336 7.28911 43.3426 6.58773C43.5515 5.88635 43.9806 5.27081 44.5665 4.83217C45.151 4.40749 45.8572 4.18315 46.5796 4.19258C47.3021 4.20202 48.0021 4.44474 48.5754 4.88455C49.1486 5.32436 49.5643 5.93769 49.7605 6.63306C49.9566 7.32843 49.9227 8.06857 49.6638 8.74311C49.4051 9.42887 48.9228 10.0074 48.2948 10.3853C47.6667 10.7632 46.9297 10.9183 46.2026 10.8257C45.9648 10.7753 45.7172 10.7981 45.4926 10.8912C45.268 10.9843 45.077 11.1433 44.9445 11.3472C43.8527 12.7746 42.6957 14.1467 41.5843 15.5579C41.425 15.7456 41.3423 15.9866 41.3529 16.2326C41.7147 17.8947 41.7277 17.8915 41.304 19.3711H51.9551V5.35691C51.9551 3.29715 51.0751 2.4237 49.0218 2.4237H13.0566C12.7672 2.43739 12.4772 2.42647 12.1897 2.3911C11.9131 2.35146 11.66 2.21393 11.4763 2.00351C11.2926 1.79308 11.1905 1.52372 11.1885 1.24438C11.1865 0.965053 11.2848 0.694286 11.4656 0.481286C11.6463 0.268286 11.8974 0.127209 12.1734 0.0836641C12.4347 0.0482797 12.6987 0.0373567 12.9621 0.051061H49.0055C52.369 0.051061 54.3212 2.00654 54.3245 5.35691C54.3245 9.7415 54.3245 14.125 54.3245 18.5074V19.4102H63.9195C64.0401 18.4879 64.1249 17.7154 63.2253 16.9724C62.4682 16.3457 61.8614 15.5572 61.4496 14.6649C61.0379 13.7725 60.8316 12.7991 60.8461 11.8165C60.8048 9.36345 60.8048 6.90823 60.8461 4.45086C60.8405 3.87376 60.9499 3.30133 61.1679 2.76698C61.386 2.23263 61.7083 1.74707 62.1161 1.33867C62.5239 0.93028 63.009 0.607231 63.543 0.38839C64.0771 0.16955 64.6494 0.0593201 65.2265 0.0641102C67.2037 0.0206554 69.1831 0.0206554 71.1647 0.0641102C73.4462 0.112997 75.343 1.65455 75.4669 3.9066C75.6016 6.83204 75.5896 9.7624 75.431 12.6866C75.3495 14.4335 74.4044 15.8741 73.1137 17.0571C72.136 17.9436 72.136 17.9436 72.338 19.5145C73.3158 19.5145 74.2936 19.4526 75.2876 19.5145C78.2404 19.7394 80.3459 21.6003 80.9912 24.4683C81.0238 24.6215 81.0825 24.7682 81.1281 24.9181L81.1248 40.4282ZM61.5697 43.3614H72.5271V42.3837C72.5271 38.1892 72.5271 33.9915 72.5271 29.7937C72.5271 28.9301 73.0029 28.3988 73.7004 28.4053C74.3979 28.4119 74.8248 28.9105 74.8867 29.7318C74.903 29.9404 74.8867 30.1522 74.8867 30.3641C74.8867 34.4032 74.8867 38.4423 74.8867 42.4815V43.394C77.2496 43.2702 78.687 41.8036 78.7261 39.5906C78.7424 38.8247 78.7261 38.0588 78.7261 37.3092C78.7261 33.5091 78.7261 29.709 78.7261 25.9023C78.7261 23.5362 77.2366 21.9914 74.8802 21.8545C74.1958 21.8154 73.5048 21.8545 72.8204 21.8317C72.5916 21.794 72.3568 21.8389 72.158 21.9583C71.9592 22.0777 71.8093 22.2638 71.7351 22.4835C71.3992 23.1519 70.8858 23.715 70.2511 24.1109C69.6164 24.5068 68.885 24.7204 68.137 24.7281C67.389 24.7359 66.6532 24.5375 66.0105 24.1548C65.3678 23.7721 64.8428 23.2198 64.4932 22.5585C64.4027 22.3211 64.2356 22.1207 64.0184 21.989C63.8011 21.8574 63.5461 21.802 63.2938 21.8317C55.5847 21.8513 47.8778 21.8513 40.1731 21.8317C39.8928 21.8317 39.6092 21.8545 39.2572 21.8708V22.9463C39.2572 24.9181 39.7657 25.4233 41.744 25.4233H59.1644C61.0286 25.4233 61.5566 25.9545 61.5566 27.8317V43.3744L61.5697 43.3614ZM33.9187 64.2197C33.9052 63.9701 33.9052 63.7198 33.9187 63.4701C33.9851 63.1004 33.9435 62.7193 33.799 62.3725C33.6545 62.0257 33.4132 61.7279 33.1039 61.5147C32.3489 60.9085 31.7303 60.1499 31.2883 59.2884C30.8463 58.427 30.591 57.482 30.5389 56.5152C30.4248 54.8074 30.4705 53.0866 30.4444 51.3723C30.4183 49.4723 30.3466 47.5657 31.634 45.8807H20.217C20.9713 46.9518 21.3745 48.2307 21.3708 49.5407C21.3708 51.5711 21.4034 53.6048 21.3708 55.6352C21.3831 56.8436 21.1142 58.0383 20.5853 59.1249C20.0564 60.2115 19.2821 61.1602 18.3235 61.896C18.1219 62.0453 17.9798 62.2612 17.9226 62.5054C17.8672 63.0465 17.9063 63.6005 17.9063 64.2263C21.3219 64.1089 24.0075 65.3832 25.9206 68.2513C27.8403 65.3604 30.5128 64.1122 33.9252 64.2067L33.9187 64.2197ZM9.04128 77.5821H18.1442C18.1442 76.6989 18.0986 75.8548 18.1442 75.0204C18.2094 74.0427 19.122 73.4724 19.852 73.9971C20.1937 74.3 20.4099 74.7196 20.4582 75.1736C20.5156 75.9915 20.5253 76.812 20.4876 77.631H23.9521C24.5322 77.631 24.7213 77.3051 24.7147 76.7673C24.6984 75.4213 24.7147 74.072 24.7147 72.726C24.6658 68.9878 21.801 66.3479 18.0627 66.6021C17.9413 66.6167 17.8239 66.6553 17.7176 66.7157C17.6113 66.7762 17.5181 66.8572 17.4435 66.9541C17.1945 67.3775 16.8432 67.7315 16.4218 67.9837C16.0004 68.236 15.5224 68.3784 15.0317 68.3979C14.0053 68.4441 12.9773 68.4365 11.9517 68.3751C11.4873 68.3496 11.0362 68.2102 10.6384 67.9692C10.2405 67.7282 9.90806 67.393 9.6703 66.9932C9.55569 66.8005 9.36934 66.661 9.15209 66.6054C5.67779 66.3708 2.95963 68.4142 2.5229 71.4941C2.26216 73.2833 2.38601 75.128 2.39253 76.9466C2.39253 77.1682 2.71845 77.5723 2.91074 77.5821C4.13945 77.6408 5.37143 77.6114 6.65881 77.6114C6.65881 76.7315 6.63925 75.9428 6.65881 75.1541C6.67836 74.3654 7.13791 73.8504 7.82886 73.8309C8.51981 73.8113 9.00543 74.323 9.02172 75.1932C9.05757 75.9819 9.0478 76.7673 9.0478 77.5854L9.04128 77.5821ZM56.117 77.6212C56.117 76.7347 56.0942 75.946 56.117 75.1606C56.1529 74.2904 56.632 73.8048 57.3588 73.8309C58.0856 73.8569 58.4604 74.336 58.4767 75.1867C58.493 75.9688 58.4767 76.751 58.4767 77.5788H67.6024C67.6024 76.7119 67.5731 75.8743 67.6024 75.04C67.6415 74.1535 68.3129 73.6451 69.0886 73.8732C69.76 74.0688 69.936 74.6098 69.9491 75.229C69.9491 76.0079 69.9491 76.7836 69.9491 77.6212C71.2169 77.6212 72.3478 77.6212 73.4788 77.6212C74.0328 77.6212 74.1599 77.2529 74.1534 76.7608C74.1371 75.4148 74.1534 74.0688 74.1534 72.726C74.1078 68.9846 71.2658 66.3545 67.5177 66.5989C67.3961 66.6105 67.2781 66.6468 67.1711 66.7057C67.064 66.7645 66.9702 66.8446 66.8952 66.9411C66.6497 67.3661 66.3007 67.7222 65.8808 67.9763C65.4609 68.2304 64.9836 68.3743 64.4932 68.3947C63.4672 68.4468 62.4392 68.4468 61.4132 68.3947C60.951 68.3664 60.5024 68.2273 60.1053 67.989C59.7081 67.7507 59.3743 67.4204 59.1318 67.0258C59.0112 66.8531 58.8059 66.6282 58.6299 66.6152C55.211 66.3675 52.4374 68.3751 51.9844 71.4876C51.7204 73.2703 51.8345 75.1182 51.8508 76.9335C51.8947 77.0888 51.9777 77.2302 52.0918 77.3443C52.2059 77.4584 52.3473 77.5414 52.5026 77.5854C53.6694 77.6636 54.8297 77.6245 56.1236 77.6245L56.117 77.6212ZM45.2248 77.6212C46.4047 77.6212 47.4802 77.6212 48.5557 77.6212C49.188 77.6212 49.4618 77.3768 49.4487 76.7217C49.4194 75.4572 49.4487 74.1894 49.4487 72.9216C49.4487 69.04 46.8186 66.4848 42.9304 66.5924C42.7742 66.6079 42.6227 66.6543 42.4845 66.7287C42.3464 66.8031 42.2243 66.9041 42.1253 67.0258C41.5745 67.7591 40.9064 68.2806 39.9775 68.3295C38.9802 68.3914 37.9764 68.4338 36.9791 68.3979C36.4475 68.3984 35.9252 68.2588 35.4646 67.9934C35.0041 67.7279 34.6215 67.3459 34.3554 66.8857C34.3008 66.8036 34.2297 66.7336 34.1467 66.6803C34.0637 66.6271 33.9705 66.5915 33.8731 66.5761C30.8909 66.4066 28.2086 67.7722 27.5046 70.6565C27.0092 72.6902 27.1982 74.8933 27.1298 77.0183C27.1642 77.1473 27.2311 77.2654 27.3241 77.3612C27.4171 77.457 27.5331 77.5275 27.661 77.5658C28.8898 77.6147 30.1185 77.5919 31.3928 77.5919C31.3928 76.7184 31.3733 75.9623 31.3928 75.1932C31.4156 74.3165 31.8719 73.808 32.5824 73.8048C33.2929 73.8015 33.746 74.3067 33.759 75.1867C33.7753 75.9688 33.759 76.751 33.759 77.556H42.8587C42.8587 76.6924 42.8326 75.8743 42.8587 75.0628C42.8847 74.2513 43.3215 73.8243 43.9994 73.808C44.6773 73.7917 45.1694 74.248 45.2053 75.0824C45.2411 75.9167 45.2313 76.7282 45.2313 77.6342L45.2248 77.6212ZM63.0396 45.8025C62.3551 45.8025 61.6675 45.7764 60.983 45.8025C60.1543 45.8283 59.3624 46.1513 58.7521 46.7126C58.1418 47.2738 57.7537 48.0359 57.6586 48.8595C57.5599 49.7258 57.5599 50.6005 57.6586 51.4668C57.7374 52.4075 58.0785 53.3072 58.6431 54.0636C59.2077 54.8201 59.9732 55.403 60.8526 55.746C61.7101 56.1378 62.6574 56.2909 63.5947 56.1894C64.5319 56.0879 65.4244 55.7354 66.1782 55.1692C68.6063 53.4875 68.8475 50.1795 68.1337 48.1165C67.6513 46.6922 66.5041 45.9491 65.0016 45.8351C64.3661 45.7797 63.7044 45.8155 63.0461 45.8155L63.0396 45.8025ZM38.3251 45.8025C37.6733 45.8025 37.0214 45.8025 36.3468 45.8025C35.5075 45.8098 34.699 46.1192 34.0693 46.674C33.4396 47.2289 33.0309 47.9921 32.9181 48.8237C32.8149 49.712 32.8226 50.6097 32.9409 51.4962C33.0317 52.4371 33.3855 53.3335 33.9619 54.0828C34.5383 54.832 35.3139 55.4039 36.2001 55.733C37.0695 56.1284 38.0317 56.2741 38.9791 56.1538C39.9266 56.0335 40.8218 55.652 41.5648 55.0519C43.7028 53.4223 43.9798 51.1409 43.6115 48.7031C43.3508 46.9758 41.9167 45.8677 40.1503 45.8155C39.5441 45.7927 38.9378 45.809 38.3316 45.809L38.3251 45.8025ZM13.5553 45.8025C12.8676 45.8025 12.1831 45.7764 11.4987 45.8025C10.7012 45.835 9.93899 46.14 9.3393 46.6668C8.73962 47.1935 8.33877 47.91 8.20367 48.6966C8.10333 49.3433 8.07056 49.9986 8.10589 50.6521C8.28189 55.003 12.5808 57.4962 16.2734 55.4038C18.3267 54.2403 19.3599 51.7699 18.9394 49.0323C18.6135 47.0084 17.2707 45.8188 15.2142 45.7732C14.6732 45.796 14.1191 45.8058 13.5683 45.8058L13.5553 45.8025ZM68.1924 8.15974H65.2591C63.9978 8.25099 63.2156 9.056 63.196 10.3042C63.1737 10.8583 63.1824 11.4132 63.2221 11.9664C63.2951 12.8571 63.6071 13.7117 64.1252 14.4399C64.6433 15.1681 65.3483 15.7431 66.1659 16.1042C66.9834 16.4652 67.8833 16.599 68.7705 16.4914C69.6578 16.3838 70.4996 16.0388 71.2071 15.4927C72.8986 14.2119 73.2604 12.3999 73.1789 10.4118C73.1235 9.03971 72.3413 8.2021 70.9594 8.15974C70.0436 8.14344 69.1277 8.16626 68.2054 8.163L68.1924 8.15974ZM57.6815 56.525C57.7708 57.2961 58.0358 58.0364 58.4562 58.689C58.8766 59.3416 59.4411 59.8891 60.1063 60.2892C60.4114 60.445 60.6631 60.6882 60.8292 60.9878C60.9952 61.2874 61.0681 61.6297 61.0384 61.9709C60.9895 62.9487 60.9993 63.9264 61.0384 64.9041C61.0775 65.9536 61.2307 66.0774 62.2606 66.0807C62.8929 66.0807 63.5252 66.0807 64.1575 66.0807C64.2703 66.0941 64.3847 66.0812 64.4917 66.0431C64.5987 66.0049 64.6954 65.9426 64.7743 65.8608C64.8532 65.7791 64.9121 65.6802 64.9465 65.5719C64.9808 65.4636 64.9897 65.3488 64.9723 65.2366C64.9723 64.5522 65.0277 63.858 64.956 63.1833C64.8061 61.7624 65.057 60.576 66.465 59.8721C66.6224 59.7744 66.7632 59.6523 66.8821 59.5103C67.7165 58.689 68.2738 57.4669 68.1858 56.6423C64.7083 59.23 61.2438 59.2105 57.6815 56.525ZM8.233 56.525C8.48722 58.0796 9.17165 59.2659 10.3938 60.0578C11.2901 60.6412 11.6975 61.3419 11.5965 62.4174C11.515 63.3333 11.5965 64.2621 11.5965 65.1844C11.578 65.3031 11.5876 65.4244 11.6244 65.5386C11.6612 65.6529 11.7243 65.757 11.8086 65.8425C11.8928 65.928 11.996 65.9927 12.1097 66.0312C12.2234 66.0697 12.3445 66.0811 12.4634 66.0644C13.2044 66.0644 13.942 66.0644 14.6764 66.0644C14.7951 66.0817 14.9163 66.0708 15.03 66.0327C15.1438 65.9946 15.247 65.9303 15.3313 65.845C15.4157 65.7597 15.4788 65.6558 15.5157 65.5416C15.5525 65.4274 15.562 65.3062 15.5434 65.1877C15.5434 64.2914 15.6118 63.3854 15.5434 62.4989C15.4326 61.368 15.8367 60.6315 16.7982 60.0155C17.9975 59.2496 18.6624 58.06 18.9134 56.5217C15.2891 59.2268 11.7986 59.23 8.233 56.5282V56.525ZM33.0029 56.5673C32.992 56.6757 32.992 56.7849 33.0029 56.8933C33.1439 57.5661 33.4184 58.2038 33.8103 58.7687C34.2022 59.3335 34.7034 59.814 35.2843 60.1817C35.6338 60.3653 35.9195 60.6503 36.1039 60.9993C36.2883 61.3484 36.3627 61.745 36.3175 62.1372C36.249 63.1149 36.3175 64.0926 36.2979 65.0704C36.2816 65.7809 36.6238 66.0774 37.3017 66.0481C37.9796 66.0188 38.6217 66.0481 39.2801 66.0481C39.9384 66.0481 40.2806 65.7222 40.2578 65.0345C40.2285 64.2686 40.3197 63.4962 40.235 62.7531C40.0916 61.4495 40.5218 60.5695 41.6691 59.8786C42.8163 59.1877 43.5366 57.6428 43.4812 56.6195C39.9906 59.2333 36.5097 59.204 33.0094 56.5706L33.0029 56.5673ZM73.1724 5.97613C73.2045 5.38449 73.2045 4.79154 73.1724 4.19991C73.1191 3.72234 72.8965 3.27968 72.5449 2.95206C72.1934 2.62444 71.7361 2.43353 71.256 2.41392C69.2223 2.37915 67.1896 2.37915 65.158 2.41392C64.6738 2.42884 64.2115 2.61919 63.8572 2.94953C63.5029 3.27988 63.2806 3.72772 63.2319 4.20969C63.183 4.86151 63.2319 5.51334 63.2319 6.2499C63.5893 6.10405 63.9605 5.99485 64.34 5.92399C64.8843 5.88814 65.2395 5.77406 65.4449 5.16461C65.5508 4.99429 65.6973 4.85298 65.8714 4.75342C66.0455 4.65386 66.2417 4.59917 66.4422 4.59426C66.6518 4.62708 66.8515 4.70609 67.0268 4.82559C67.2021 4.94509 67.3486 5.10208 67.4558 5.2852C67.5113 5.45477 67.6246 5.59951 67.7759 5.6942C67.9271 5.78888 68.1068 5.82752 68.2836 5.8034C69.8904 5.83925 71.5102 5.91094 73.1724 5.97613ZM66.377 18.8333C66.377 19.3711 66.3542 19.9708 66.377 20.5672C66.3758 21.0182 66.5504 21.452 66.8638 21.7764C67.1771 22.1008 67.6046 22.2904 68.0554 22.3048C68.5063 22.3192 68.945 22.1574 69.2784 21.8537C69.6119 21.5499 69.8139 21.1282 69.8415 20.678C69.9002 20.0588 69.8415 19.4297 69.8415 18.8333H66.377ZM39.3029 17.7024C39.3091 17.4469 39.215 17.1991 39.0408 17.0121C38.8666 16.8251 38.6261 16.7137 38.3708 16.7019C38.2393 16.6941 38.1076 16.7138 37.9842 16.7599C37.8608 16.806 37.7483 16.8773 37.6541 16.9694C37.5599 17.0614 37.486 17.1722 37.4371 17.2945C37.3882 17.4168 37.3654 17.548 37.3702 17.6796C37.3618 17.8062 37.3808 17.933 37.4259 18.0516C37.4709 18.1701 37.541 18.2776 37.6313 18.3666C37.7216 18.4557 37.83 18.5243 37.9492 18.5677C38.0683 18.6111 38.1954 18.6283 38.3219 18.6182C38.4471 18.6253 38.5724 18.6069 38.6903 18.5642C38.8082 18.5215 38.9163 18.4554 39.0079 18.3698C39.0996 18.2843 39.173 18.181 39.2237 18.0663C39.2744 17.9516 39.3013 17.8278 39.3029 17.7024ZM8.35685 22.7606C8.61062 22.7607 8.8545 22.6622 9.03696 22.4858C9.21941 22.3094 9.32615 22.069 9.33461 21.8154C9.33771 21.6835 9.31406 21.5522 9.26509 21.4296C9.21611 21.3071 9.14282 21.1957 9.04963 21.1022C8.95643 21.0087 8.84528 20.935 8.72285 20.8857C8.60043 20.8363 8.46927 20.8122 8.33729 20.8149C8.21108 20.8137 8.08599 20.8386 7.96987 20.888C7.85374 20.9375 7.74909 21.0104 7.66248 21.1022C7.57588 21.194 7.50918 21.3027 7.46658 21.4215C7.42398 21.5403 7.4064 21.6667 7.41494 21.7926C7.42146 22.3955 7.79301 22.6921 8.35685 22.7606ZM24.027 18.9572C24.0019 19.0967 24.0075 19.2401 24.0433 19.3773C24.0791 19.5145 24.1444 19.6423 24.2345 19.7517C24.3247 19.8612 24.4375 19.9498 24.5653 20.0113C24.6931 20.0728 24.8327 20.1057 24.9745 20.1079C25.1163 20.11 25.2568 20.0813 25.3864 20.0238C25.516 19.9662 25.6315 19.8811 25.725 19.7744C25.8184 19.6677 25.8875 19.542 25.9274 19.4059C25.9674 19.2699 25.9773 19.1268 25.9565 18.9865C25.9621 18.8601 25.9412 18.7338 25.8951 18.6159C25.849 18.498 25.7787 18.3911 25.6887 18.3021C25.5987 18.213 25.4911 18.1438 25.3727 18.0989C25.2544 18.054 25.1279 18.0344 25.0015 18.0414C24.4149 18.0316 24.089 18.3803 24.027 18.9572ZM46.5546 8.47588C46.6824 8.47726 46.8093 8.45275 46.9275 8.40385C47.0456 8.35495 47.1527 8.28268 47.2422 8.19134C47.3317 8.10001 47.4018 7.9915 47.4483 7.87238C47.4948 7.75325 47.5167 7.62597 47.5128 7.49815C47.5104 7.3666 47.4814 7.23689 47.4277 7.1168C47.374 6.9967 47.2965 6.8887 47.2001 6.79924C47.1036 6.70977 46.9901 6.64069 46.8663 6.59614C46.7425 6.55159 46.611 6.53249 46.4796 6.53997C46.3533 6.54325 46.229 6.57272 46.1146 6.62656C46.0003 6.68039 45.8983 6.7574 45.8153 6.85269C45.7323 6.94798 45.6699 7.05949 45.6322 7.18013C45.5945 7.30078 45.5823 7.42793 45.5964 7.55354C45.5929 7.67868 45.6156 7.80315 45.6631 7.919C45.7105 8.03486 45.7816 8.13954 45.8717 8.22635C45.9619 8.31317 46.0692 8.3802 46.1868 8.42317C46.3044 8.46613 46.4297 8.48409 46.5546 8.47588ZM32.6965 10.7279C32.7063 10.5995 32.6888 10.4705 32.645 10.3494C32.6012 10.2283 32.5322 10.1178 32.4425 10.0254C32.3529 9.93297 32.2446 9.86065 32.1249 9.8132C32.0051 9.76575 31.8767 9.74427 31.7481 9.75018C31.6218 9.74258 31.4953 9.76102 31.3765 9.80437C31.2577 9.84772 31.1491 9.91504 31.0574 10.0022C30.9657 10.0893 30.8929 10.1943 30.8435 10.3108C30.7941 10.4272 30.7692 10.5525 30.7703 10.679C30.7668 10.8113 30.7901 10.9429 30.8389 11.0658C30.8876 11.1888 30.9609 11.3006 31.0541 11.3944C31.1473 11.4883 31.2586 11.5622 31.3813 11.6118C31.5039 11.6614 31.6354 11.6855 31.7676 11.6828C31.8913 11.6811 32.0135 11.6551 32.1271 11.6062C32.2407 11.5573 32.3436 11.4865 32.4299 11.3978C32.5161 11.3091 32.5841 11.2043 32.6298 11.0894C32.6756 10.9744 32.6982 10.8516 32.6965 10.7279ZM17.2936 14.3129C17.3112 14.1706 17.2973 14.0261 17.2528 13.8898C17.2083 13.7534 17.1344 13.6285 17.0363 13.5239C16.9381 13.4193 16.8182 13.3376 16.6849 13.2845C16.5517 13.2314 16.4084 13.2083 16.2652 13.2169C16.122 13.2254 15.9825 13.2653 15.8564 13.3337C15.7304 13.4022 15.621 13.4976 15.5359 13.613C15.4509 13.7285 15.3923 13.8613 15.3643 14.002C15.3363 14.1427 15.3395 14.2878 15.3739 14.427C15.375 14.5533 15.4031 14.678 15.4562 14.7927C15.5092 14.9073 15.5861 15.0094 15.6817 15.092C15.7773 15.1746 15.8894 15.236 16.0105 15.2719C16.1317 15.3079 16.2591 15.3176 16.3842 15.3005C16.5108 15.3019 16.6363 15.2768 16.7525 15.2266C16.8688 15.1764 16.9731 15.1024 17.0589 15.0093C17.1446 14.9161 17.2098 14.806 17.2503 14.6861C17.2907 14.5661 17.3054 14.439 17.2936 14.3129Z" fill="#D5A31A"/>
<path d="M27.1754 32.9812H46.8218C48.0505 32.9812 48.6209 33.3495 48.6405 34.1447C48.66 34.9399 48.0668 35.3571 46.7925 35.3571H7.58116C7.39539 35.3571 7.20962 35.3571 7.0271 35.3571C6.20253 35.3212 5.70713 34.8878 5.69409 34.1968C5.68105 33.5059 6.19275 32.9942 7.05643 32.991C10.1201 32.991 13.1837 32.991 16.2441 32.991L27.1754 32.9812Z" fill="#D5A31A"/>
<path d="M17.2805 39.9524H7.4671C7.20475 39.9684 6.94144 39.9564 6.68164 39.9166C6.40165 39.8838 6.14468 39.7456 5.96303 39.53C5.78138 39.3145 5.6887 39.0378 5.70388 38.7563C5.69547 38.4749 5.79292 38.2006 5.97697 37.9876C6.16103 37.7746 6.4183 37.6384 6.69793 37.6059C6.93311 37.5715 7.17123 37.5617 7.40844 37.5765H27.195C27.4587 37.5627 27.723 37.5769 27.9837 37.6189C28.2469 37.6737 28.4829 37.818 28.6518 38.0271C28.8206 38.2363 28.9119 38.4975 28.9099 38.7663C28.908 39.0351 28.8131 39.2949 28.6413 39.5016C28.4694 39.7084 28.2313 39.8492 27.9674 39.9003C27.7066 39.9412 27.4422 39.9543 27.1787 39.9394L17.2805 39.9524Z" fill="#D5A31A"/>
</svg>
