<svg width="81" height="80" viewBox="0 0 81 80" fill="none" xmlns="http://www.w3.org/2000/svg">
<path d="M0 79.9969V77.4913H2.4837V60.0463H14.9962V77.4568H19.9792V47.5341H32.4886V77.4381H37.4999V37.5244H49.9904V77.4443H55.0017V42.5261H57.5073C57.5073 40.7597 57.5073 39.081 57.4791 37.396C57.4791 37.2488 57.1095 37.042 56.8809 36.9794C49.956 35.0783 45.2924 30.7593 43.2503 23.869C39.9585 12.8383 47.7322 1.28448 59.1391 0.106864C69.5813 -0.967398 78.5577 6.1672 79.8826 16.5747C79.9141 16.7236 79.9592 16.8693 80.0172 17.01V20.4552C79.9592 20.5959 79.9141 20.7416 79.8826 20.8905C79.5034 24.3782 78.1291 27.6833 75.9237 30.4117C73.3376 33.6909 69.7255 36.0071 65.6662 36.9888C65.4251 37.0514 65.0398 37.302 65.0398 37.4649C64.9929 39.1217 65.0117 40.7785 65.0117 42.5198H67.5361V77.4944H80.0141V80L0 79.9969ZM40.0493 77.4412H47.4566V40.0237H40.0493V77.4412ZM62.5185 34.9656C67.1759 34.4582 71.0659 32.5038 73.9724 28.8238C76.8789 25.1437 77.9845 20.9407 77.3268 16.296C76.2463 8.62893 69.4967 2.62808 61.8013 2.47775C53.5014 2.31489 46.683 7.86786 45.2266 16.0673C44.5407 19.7992 45.2579 23.6529 47.2405 26.8882C50.1126 31.7021 54.4442 34.3078 60.0317 34.9812V42.4228H62.5185V34.9656ZM64.9521 77.46V45.0505H57.5574V77.46H64.9521ZM29.9423 77.46V50.0491H22.5475V77.46H29.9423ZM12.4373 77.46V62.5519H5.00186V77.46H12.4373Z" fill="#D5A31A"/>
<path d="M80.0235 44.9877H72.5755V42.4822H80.0235V44.9877Z" fill="#D5A31A"/>
<path d="M80.0235 49.9992H72.5755V47.4937H80.0235V49.9992Z" fill="#D5A31A"/>
<path d="M80.0235 54.988H72.5755V52.4824H80.0235V54.988Z" fill="#D5A31A"/>
<path d="M80.0235 59.9902H72.5755V57.4846H80.0235V59.9902Z" fill="#D5A31A"/>
<path d="M80.0235 64.9917H72.5755V62.4861H80.0235V64.9917Z" fill="#D5A31A"/>
<path d="M80.0235 69.9934H72.5755V67.4878H80.0235V69.9934Z" fill="#D5A31A"/>
<path d="M80.0235 74.9948H72.5755V72.4893H80.0235V74.9948Z" fill="#D5A31A"/>
<path d="M35.7051 29.9921H32.573V27.521H39.9678V34.9375H37.5248V31.8055C37.2116 32.0905 37.008 32.2659 36.8201 32.4538C33.6317 35.6359 30.4558 38.8305 27.2486 41.9938C26.9382 42.2785 26.5385 42.4468 26.1179 42.4698C23.6979 42.5137 21.2758 42.5137 18.8516 42.4698C18.571 42.4596 18.2914 42.5078 18.0305 42.6113C17.7695 42.7148 17.5329 42.8714 17.3357 43.0712C12.4539 47.6062 7.55956 52.1298 2.65271 56.642C2.48044 56.8017 2.30505 56.9551 2.08894 57.1431L0.447754 55.3578C0.572276 55.2016 0.705055 55.0521 0.845523 54.91C6.08646 50.068 11.3316 45.2322 16.5809 40.4027C16.8673 40.1596 17.2265 40.0186 17.6019 40.0018C20.1075 39.9705 22.6132 40.0018 25.1 39.9737C25.425 39.985 25.7438 39.8832 26.002 39.6855C29.203 36.5316 32.3789 33.3245 35.7051 29.9921Z" fill="#D5A31A"/>
<path d="M61.2657 4.97705C63.9852 4.97767 66.6435 5.78453 68.9045 7.29563C71.1655 8.80672 72.9278 10.9542 73.9685 13.4667C75.0092 15.9791 75.2817 18.7437 74.7514 21.4109C74.2212 24.0782 72.912 26.5283 70.9895 28.4517C69.0669 30.3751 66.6173 31.6853 63.9502 32.2168C61.2832 32.7482 58.5184 32.477 56.0054 31.4375C53.4925 30.3979 51.3441 28.6367 49.8319 26.3764C48.3198 24.1162 47.5117 21.4583 47.5098 18.7389C47.5086 16.9318 47.8635 15.1423 48.5543 13.4724C49.2451 11.8026 50.2582 10.2853 51.5357 9.00726C52.8132 7.72919 54.3301 6.71542 55.9996 6.02389C57.6692 5.33236 59.4586 4.97664 61.2657 4.97705ZM61.3127 7.48262C59.085 7.4727 56.9045 8.12417 55.0474 9.35449C53.1903 10.5848 51.7401 12.3386 50.8806 14.3938C50.021 16.449 49.7908 18.713 50.2191 20.8991C50.6474 23.0852 51.7149 25.095 53.2864 26.6739C54.8579 28.2528 56.8627 29.3298 59.0467 29.7685C61.2308 30.2071 63.496 29.9876 65.5553 29.1379C67.6145 28.2881 69.3753 26.8463 70.6144 24.9951C71.8535 23.1439 72.5154 20.9665 72.516 18.7389C72.5193 15.7617 71.3424 12.9046 69.243 10.7935C67.1437 8.68245 64.2931 7.48962 61.3158 7.47636L61.3127 7.48262Z" fill="#D5A31A"/>
<path d="M60.0317 26.1964V15.1093L59.8595 14.9871L57.6451 17.5804L55.9225 15.745C57.7046 13.9661 59.5369 12.1433 61.319 10.3706C63.0103 12.0587 64.8394 13.8909 66.6967 15.7482L64.9271 17.3768L62.7347 14.9527L62.5311 15.0654V26.1964H60.0317Z" fill="#D5A31A"/>
</svg>
