<svg width="83" height="80" viewBox="0 0 83 80" fill="none" xmlns="http://www.w3.org/2000/svg">
<path d="M68.1479 61.465L69.6639 63.4031C70.0815 63.09 70.4401 62.7995 70.8168 62.5362C71.8335 61.8191 73.0091 61.9053 73.7717 62.8721C76.4103 66.2006 79.0247 69.5457 81.615 72.9075C81.7981 73.1186 81.9353 73.3656 82.0177 73.6327C82.1 73.8998 82.1258 74.1811 82.0934 74.4587C82.0609 74.7363 81.9709 75.0041 81.8291 75.245C81.6874 75.4859 81.4969 75.6946 81.27 75.8577C79.8236 77.0469 78.3469 78.1998 76.84 79.3163C76.6261 79.4957 76.3773 79.6285 76.1093 79.7064C75.8413 79.7843 75.5601 79.8056 75.2834 79.7689C75.0067 79.7322 74.7408 79.6383 74.5024 79.4932C74.264 79.348 74.0584 79.1549 73.8987 78.926C71.2994 75.6369 68.7168 72.3356 66.1507 69.0222C65.311 67.942 65.4881 66.7528 66.5366 65.8813C66.8498 65.6181 67.1766 65.3639 67.5805 65.0462L66.1553 63.2307C64.0896 64.8033 61.6956 65.8894 59.1517 66.4079C58.5752 66.5168 58.6978 66.9298 58.6978 67.3156C58.6297 69.5079 57.4541 71.042 55.4933 71.4641C55.1147 71.5338 54.7297 71.5627 54.3449 71.5504H11.1431C8.46969 71.5504 6.81296 69.8891 6.79935 67.2158V64.9781C5.93241 64.9781 5.14264 64.9781 4.34833 64.9781C1.59772 64.9509 0 63.3396 0 60.58V4.42083C0 1.63852 1.63402 0 4.42548 0H47.4457C50.2326 0 51.8394 1.62945 51.853 4.43899C51.853 5.11982 51.853 5.80064 51.853 6.59494H54.3041C57.0275 6.59494 58.6751 8.21076 58.6796 10.9704C58.6796 17.5608 58.7069 24.133 58.6796 30.7461C58.6796 31.6902 58.9111 32.0397 59.8507 32.2712C72.5597 35.3621 77.4255 51.0257 68.7334 60.7979C68.5382 61.0157 68.3567 61.2245 68.1479 61.465ZM55.9199 66.78C55.7384 66.78 55.6022 66.78 55.466 66.78C53.2264 66.7943 51.006 66.3667 48.9319 65.5216C46.8578 64.6766 44.9708 63.4307 43.3788 61.8554C43.203 61.6733 42.991 61.5299 42.7565 61.4345C42.522 61.3392 42.2702 61.2939 42.0171 61.3017C33.2206 61.3198 24.4226 61.3198 15.6231 61.3017C14.2614 61.3017 13.6441 60.8796 13.6577 59.9763C13.6713 59.0731 14.3159 58.6555 15.6594 58.6555H40.5873C39.8384 56.84 39.1213 55.1198 38.3769 53.336H26.7481C22.8582 53.336 18.9728 53.336 15.0829 53.336C14.9037 53.3541 14.7227 53.3352 14.5511 53.2803C14.3795 53.2254 14.2211 53.1358 14.0856 53.017C13.9502 52.8982 13.8407 52.7527 13.764 52.5897C13.6872 52.4267 13.6449 52.2497 13.6396 52.0696C13.6396 51.7085 13.783 51.3622 14.0384 51.1068C14.2937 50.8515 14.6401 50.708 15.0012 50.708C15.2463 50.708 15.496 50.708 15.7456 50.708H37.9638L38.3269 45.3975H15.6322C15.357 45.4135 15.0812 45.4135 14.8061 45.3975C14.4859 45.3647 14.1896 45.2133 13.9755 44.9731C13.7613 44.7329 13.6447 44.4212 13.6486 44.0994C13.6391 43.7911 13.7421 43.4898 13.9384 43.2518C14.1347 43.0138 14.4108 42.8553 14.7153 42.8059C15.0158 42.7618 15.32 42.7496 15.6231 42.7695C23.017 42.7695 30.4065 42.7695 37.8004 42.7695C38.8489 42.7695 39.4254 42.5607 39.902 41.5168C40.551 40.0916 41.536 38.8207 42.3984 37.4319H41.6177C39.8793 37.4319 38.1409 37.4319 36.4024 37.4319C35.4084 37.4319 34.8319 36.8327 34.9091 35.9658C34.9772 35.226 35.5173 34.7902 36.4297 34.7902C39.2711 34.7902 42.1124 34.7902 44.9493 34.7902C45.4068 34.7782 45.8542 34.6535 46.252 34.4271C48.0321 33.3189 50.0018 32.5495 52.0618 32.1577C53.3509 31.9308 54.6627 31.8264 55.9835 31.6675C56.009 31.5617 56.0257 31.4539 56.0334 31.3453C56.0334 24.534 56.0334 17.7257 56.0334 10.9205C56.0334 9.79937 55.5205 9.35001 54.3676 9.35001H11.1704C9.94031 9.35001 9.45011 9.8039 9.45011 11.0385C9.45011 29.7688 9.45011 48.5006 9.45011 67.2339C9.45011 68.473 9.904 68.9541 11.1431 68.9541H54.3359C55.6794 68.8724 56.1968 68.2007 55.9199 66.78ZM6.80843 62.2866V61.1564C6.80843 44.5261 6.84021 27.8912 6.7812 11.2609C6.7812 8.48764 8.59678 6.57224 11.4291 6.5904C23.6843 6.6721 35.9122 6.6267 48.1583 6.6267H49.2159V4.72947C49.2159 3.0501 48.8437 2.67792 47.187 2.67792H4.74776C3.02295 2.67792 2.65528 3.04557 2.65528 4.75217V60.2486C2.65528 60.4393 2.65528 60.6345 2.65528 60.8251C2.69613 61.7329 3.14549 62.2276 4.01696 62.2639C4.88844 62.3002 5.78263 62.2866 6.80843 62.2866ZM55.5795 34.3409C52.6358 34.34 49.7578 35.2118 47.3094 36.8461C44.8611 38.4804 42.9521 40.8039 41.8239 43.5228C40.6958 46.2417 40.399 49.2341 40.9711 52.1216C41.5432 55.0092 42.9585 57.6623 45.0381 59.7457C47.1178 61.8291 49.7684 63.2492 52.655 63.8266C55.5415 64.4039 58.5345 64.1126 61.2555 62.9894C63.9766 61.8662 66.3035 59.9616 67.9424 57.5163C69.5812 55.071 70.4583 52.1947 70.4627 49.251C70.4699 47.2925 70.0898 45.3519 69.3441 43.5409C68.5985 41.7298 67.5021 40.0841 66.118 38.6984C64.7339 37.3126 63.0895 36.2143 61.2793 35.4664C59.4692 34.7186 57.529 34.3361 55.5704 34.3409H55.5795ZM75.6962 76.888L79.232 74.1103L72.0468 64.9327L68.4974 67.7196L75.1606 76.2435C75.3013 76.4342 75.4647 76.6202 75.6871 76.888H75.6962Z" fill="#D5A31A"/>
<path d="M31.6457 27.8459C31.6457 29.7795 31.6457 31.7085 31.6457 33.6375C31.6457 35.9659 30.1978 37.4002 27.8784 37.4047C24.3743 37.4047 20.8733 37.4047 17.3752 37.4047C15.1512 37.4047 13.6533 35.9659 13.6351 33.7737C13.6049 29.8067 13.6049 25.8367 13.6351 21.8637C13.6351 19.6488 15.1511 18.2327 17.3798 18.2327C20.905 18.2327 24.4333 18.2327 27.9646 18.2327C30.1796 18.2327 31.623 19.676 31.6457 21.9091C31.6593 23.879 31.6412 25.8625 31.6457 27.8459ZM28.995 27.7915C28.995 25.9169 28.995 24.0469 28.995 22.1724C28.995 21.074 28.7816 20.8607 27.6968 20.8607H17.6113C16.531 20.8607 16.2723 21.1012 16.2723 22.1497C16.2723 25.926 16.2723 29.7084 16.2723 33.4968C16.2723 34.5044 16.5491 34.7722 17.5477 34.7768H27.715C28.7408 34.7768 28.9904 34.5317 28.995 33.515C28.9995 31.595 28.995 29.6933 28.995 27.7915Z" fill="#D5A31A"/>
<path d="M43.574 26.7974H50.5912C51.6397 26.7974 52.2479 27.283 52.2524 28.0955C52.257 28.9079 51.6215 29.4571 50.6048 29.4571C45.8964 29.4571 41.1895 29.4571 36.4841 29.4571C35.4492 29.4571 34.8682 28.9352 34.8864 28.0955C34.9046 27.2558 35.4583 26.8201 36.4705 26.8201L43.574 26.7974Z" fill="#D5A31A"/>
<path d="M43.5377 18.8366H50.8363C51.44 18.8366 51.9983 19.0317 52.1254 19.6399C52.2235 20.1073 52.139 20.5945 51.8894 21.0016C51.739 21.1543 51.5594 21.2752 51.3614 21.3571C51.1633 21.4389 50.9508 21.4801 50.7365 21.4782C45.9615 21.5099 41.2047 21.5054 36.4206 21.4782C35.4447 21.4782 34.8864 20.9199 34.9137 20.0938C34.9409 19.2678 35.4811 18.8456 36.4388 18.8411C38.7945 18.8275 41.1684 18.832 43.5377 18.8366Z" fill="#D5A31A"/>
<path d="M67.4352 49.251C67.4343 51.5996 66.7369 53.8951 65.4312 55.8473C64.1256 57.7995 62.2703 59.3207 60.1 60.2184C57.9297 61.1162 55.542 61.3501 53.2387 60.8907C50.9354 60.4313 48.8201 59.2992 47.1604 57.6376C45.5006 55.9759 44.3709 53.8594 43.9141 51.5557C43.4573 49.2519 43.694 46.8645 44.5943 44.6953C45.4945 42.5261 47.0178 40.6726 48.9716 39.3692C50.9253 38.0658 53.2217 37.3711 55.5704 37.3728C57.1308 37.3686 58.6767 37.6731 60.119 38.2687C61.5613 38.8643 62.8715 39.7394 63.9742 40.8434C65.077 41.9474 65.9505 43.2586 66.5445 44.7015C67.1385 46.1445 67.4412 47.6906 67.4352 49.251ZM64.7754 49.251C64.7817 47.4257 64.2459 45.6396 63.2359 44.119C62.226 42.5985 60.7874 41.412 59.1024 40.71C57.4175 40.0079 55.562 39.8219 53.7712 40.1755C51.9803 40.529 50.3348 41.4063 49.0431 42.696C47.7514 43.9858 46.8717 45.63 46.5154 47.4203C46.1592 49.2105 46.3425 51.0662 47.0421 52.7522C47.7416 54.4382 48.926 55.8785 50.4451 56.8907C51.9642 57.9028 53.7495 58.4412 55.5749 58.4376C56.782 58.443 57.9782 58.2098 59.0948 57.7513C60.2114 57.2929 61.2264 56.6182 62.0814 55.7662C62.9364 54.9142 63.6145 53.9016 64.0769 52.7866C64.5392 51.6716 64.7766 50.4762 64.7754 49.2692V49.251Z" fill="#D5A31A"/>
<path d="M55.6068 42.1159C57.168 42.1038 58.6902 42.603 59.9409 43.5374C61.1917 44.4717 62.1022 45.7898 62.5333 47.2902C62.7194 48.021 62.6876 48.6791 61.9523 49.1058C61.217 49.5324 60.3228 49.133 60.0096 48.1163C59.4014 46.1419 58.0897 45.0117 56.029 44.8075C55.589 44.8002 55.1491 44.8245 54.7127 44.8801C54.5423 44.9071 54.3682 44.8998 54.2007 44.8588C54.0331 44.8177 53.8754 44.7437 53.7368 44.641C53.5982 44.5383 53.4815 44.4091 53.3934 44.2607C53.3053 44.1124 53.2477 43.948 53.2239 43.7772C53.1965 43.5987 53.206 43.4165 53.2518 43.2418C53.2976 43.0671 53.3788 42.9037 53.4902 42.7617C53.6017 42.6196 53.741 42.5019 53.8998 42.4158C54.0585 42.3297 54.2332 42.2771 54.4131 42.2612C54.8443 42.1659 55.2891 42.1477 55.6068 42.1159Z" fill="#D5A31A"/>
</svg>
